<?xml version="1.0" standalone="no"?>
<!DOCTYPE svg PUBLIC "-//W3C//DTD SVG 20010904//EN"
 "http://www.w3.org/TR/2001/REC-SVG-20010904/DTD/svg10.dtd">
<svg version="1.0" xmlns="http://www.w3.org/2000/svg"
 width="624.000000pt" height="624.000000pt" viewBox="0 0 624.000000 624.000000"
 preserveAspectRatio="xMidYMid meet">
<metadata>
Created by potrace 1.14, written by Peter Selinger 2001-2017
</metadata>
<g transform="translate(0.000000,624.000000) scale(0.100000,-0.100000)"
fill="#000000" stroke="none">
<path d="M2662 6211 c8 -13 17 -17 27 -12 23 10 46 7 44 -6 -2 -7 6 -11 17
-10 11 1 20 7 20 14 0 7 -7 10 -17 6 -12 -5 -14 -3 -8 7 5 8 4 11 -3 6 -5 -3
-12 -1 -14 5 -3 8 -11 8 -27 -2 -19 -11 -25 -11 -28 -1 -3 6 -9 12 -14 12 -5
0 -4 -9 3 -19z"/>
<path d="M2620 6206 c14 -18 13 -19 -2 -13 -12 4 -15 2 -11 -9 4 -10 0 -12
-13 -7 -16 6 -17 5 -4 -9 13 -14 16 -14 23 -2 5 8 13 11 19 8 6 -4 8 -3 5 3
-3 5 0 10 7 10 8 0 12 -7 9 -14 -3 -8 -12 -12 -19 -9 -19 7 -17 -4 4 -21 16
-13 15 -13 -4 -4 -11 5 -26 6 -34 1 -8 -5 -18 -6 -22 -4 -4 3 -5 -3 -1 -12 4
-12 3 -15 -6 -10 -7 5 -10 2 -9 -6 2 -7 -2 -12 -9 -11 -8 2 -10 -4 -6 -15 5
-14 3 -15 -8 -4 -16 15 -29 16 -29 1 0 -5 4 -8 9 -4 5 3 12 1 16 -5 4 -6 10
-8 15 -5 17 10 19 -13 3 -26 -9 -8 -14 -9 -10 -3 4 7 0 15 -9 18 -13 5 -15 1
-10 -21 4 -18 3 -23 -2 -15 -5 8 -12 13 -16 13 -30 -4 -36 -1 -24 13 7 8 18
11 23 8 6 -3 6 -1 2 3 -12 14 -37 15 -34 2 1 -7 -5 -11 -13 -9 -10 1 -8 -4 6
-16 21 -18 21 -19 3 -30 -27 -17 -36 -15 -13 4 19 15 19 16 -1 9 -11 -4 -27
-8 -35 -10 -8 -1 -14 -9 -12 -16 1 -8 -5 -5 -13 5 -8 11 -13 29 -10 40 6 21 6
21 -7 0 -8 -12 -22 -20 -35 -19 -12 1 -20 -2 -18 -6 3 -4 -2 -10 -11 -13 -12
-5 -15 -2 -10 11 5 15 4 15 -9 -1 -8 -11 -15 -16 -15 -11 0 4 -9 0 -20 -10
-15 -14 -23 -15 -34 -6 -10 8 -16 9 -21 1 -3 -6 -11 -8 -16 -4 -5 3 -6 10 -3
16 4 7 2 8 -5 4 -8 -6 -9 -12 -2 -20 6 -7 7 -17 3 -21 -4 -5 -1 -5 6 -1 7 4
12 4 11 -1 -4 -21 2 -34 13 -27 6 4 8 3 5 -4 -4 -5 -15 -9 -25 -7 -9 1 -24 -3
-32 -9 -13 -10 -13 -9 -1 6 7 10 17 15 22 12 15 -9 10 10 -10 35 -13 17 -18
19 -18 7 0 -9 5 -16 11 -16 11 0 -10 -25 -22 -25 -4 -1 -18 -7 -32 -15 -14 -7
-27 -12 -30 -11 -2 1 -7 -5 -10 -15 -6 -16 -7 -15 -12 4 -4 14 -2 20 4 15 7
-4 8 -1 4 6 -6 9 -12 8 -26 -4 -17 -15 -19 -15 -30 2 -11 17 -11 17 -6 -1 5
-14 2 -17 -13 -13 -15 3 -18 1 -14 -11 5 -11 3 -13 -7 -7 -8 5 -11 4 -6 -3 4
-7 -1 -10 -14 -9 -23 1 -25 8 -7 27 10 12 9 12 -3 3 -8 -6 -23 -9 -33 -8 -9 2
-15 -1 -11 -6 3 -5 10 -6 16 -3 7 5 9 1 5 -9 -3 -9 -1 -19 5 -23 7 -4 8 -3 4
4 -6 11 31 9 41 -2 8 -8 -7 -26 -20 -25 -9 0 -8 2 1 6 6 2 9 9 6 14 -3 6 -11
6 -20 -2 -7 -6 -12 -15 -9 -19 3 -5 1 -12 -5 -15 -6 -4 -10 -3 -9 2 1 4 -3 19
-9 33 -8 19 -11 21 -11 7 -1 -10 -5 -16 -11 -12 -5 3 -18 -11 -29 -32 -11 -21
-20 -32 -21 -25 0 7 -5 10 -10 7 -6 -4 -8 -10 -5 -15 3 -5 0 -12 -6 -16 -8 -4
-9 -3 -5 4 4 7 2 12 -3 12 -6 0 -11 -5 -11 -11 0 -8 -4 -8 -14 0 -11 9 -16 9
-23 -1 -10 -16 -49 -47 -40 -32 4 6 -3 20 -16 30 -14 13 -18 14 -9 3 7 -9 10
-24 6 -33 -7 -19 -15 -20 -32 -6 -6 6 -10 7 -7 4 2 -4 -4 -18 -15 -31 -10 -13
-17 -30 -14 -38 3 -7 0 -16 -7 -21 -8 -5 -10 -3 -4 5 5 9 1 9 -14 -1 -12 -7
-24 -21 -27 -32 -5 -13 -8 -15 -14 -6 -5 9 -9 9 -14 1 -4 -6 -2 -11 4 -11 6 0
3 -12 -7 -27 -14 -21 -14 -25 -3 -21 8 2 15 9 15 14 0 5 8 20 18 34 9 13 17
19 17 13 0 -6 -7 -18 -15 -26 -8 -8 -12 -17 -9 -20 3 -3 -15 -19 -41 -37 -25
-17 -43 -35 -40 -41 10 -15 -2 -10 -16 8 -8 9 -9 14 -2 10 7 -5 9 0 6 13 -3
11 -9 20 -14 20 -5 0 -6 -7 -3 -15 5 -11 2 -13 -12 -8 -13 5 -12 1 6 -17 22
-22 22 -24 5 -36 -10 -7 -21 -11 -25 -9 -11 7 -20 -22 -13 -43 5 -14 3 -13
-10 3 -13 16 -17 17 -18 5 -1 -8 0 -19 1 -25 1 -5 -2 -6 -6 -2 -15 15 -12 36
6 42 10 3 21 13 24 21 3 9 11 12 18 8 9 -5 9 -3 -1 9 -16 20 -22 22 -18 5 1
-7 -5 -13 -13 -13 -8 0 -14 -6 -13 -13 4 -15 -9 -16 -24 -1 -9 9 -11 8 -10 -2
2 -8 6 -19 10 -25 11 -18 -5 -25 -18 -7 -7 9 -17 13 -24 9 -8 -6 -9 -12 -2
-20 6 -7 7 -17 3 -22 -4 -4 0 -3 8 3 10 8 21 9 30 3 13 -9 13 -10 0 -11 -8 -1
-18 -1 -22 0 -5 0 -8 -5 -8 -12 0 -6 -8 -21 -17 -32 -14 -18 -15 -18 -9 -1 5
14 2 17 -10 12 -12 -5 -14 -1 -9 17 5 17 4 19 -4 7 -6 -8 -11 -22 -11 -32 0
-17 -15 -19 -40 -3 -13 7 -13 6 -2 -7 8 -10 23 -15 38 -12 13 2 24 0 24 -6 0
-6 -4 -8 -10 -5 -5 3 -10 1 -10 -4 0 -6 5 -11 12 -11 6 0 8 -3 5 -6 -4 -4 -12
-2 -20 4 -14 12 -42 11 -54 -3 -4 -4 -3 -5 4 -1 8 4 11 -1 11 -16 -2 -36 -17
-49 -42 -37 -17 8 -17 7 4 -10 22 -18 21 -26 -3 -22 -5 1 -6 -3 -2 -9 3 -5 1
-10 -4 -10 -6 0 -11 -7 -11 -15 0 -8 5 -15 10 -15 6 0 9 6 8 13 -2 6 3 11 10
9 8 -1 11 2 7 8 -3 6 0 7 9 4 18 -7 22 -25 5 -22 -6 2 -13 -6 -15 -17 -1 -11
-8 -21 -14 -23 -5 -2 -7 -9 -3 -15 4 -6 -9 0 -28 13 -21 15 -29 18 -20 7 12
-15 11 -20 -3 -36 -17 -18 -16 -20 1 -30 10 -6 14 -11 9 -11 -5 0 -1 -10 10
-22 19 -23 19 -23 -1 -6 -15 13 -25 14 -39 6 -14 -8 -17 -7 -13 3 2 8 10 13
16 11 6 -1 11 2 11 8 0 5 -7 10 -16 10 -9 0 -12 5 -8 12 4 7 3 8 -4 4 -6 -4
-9 -13 -6 -20 3 -7 -2 -20 -11 -29 -8 -9 -11 -18 -6 -21 5 -4 11 0 14 6 3 7 4
-10 3 -38 0 -37 -5 -51 -15 -50 -8 1 -16 -5 -18 -12 -3 -6 1 -10 9 -9 7 2 10
2 6 0 -5 -3 -4 -13 2 -22 6 -13 5 -18 -5 -18 -8 0 -11 7 -7 16 5 14 4 14 -12
2 -17 -14 -17 -16 -1 -27 16 -12 16 -13 -2 -11 -21 1 -27 27 -9 40 7 6 6 7 -4
4 -14 -3 -16 -16 -11 -67 1 -13 2 -13 11 0 7 12 9 10 8 -6 -2 -21 -20 -26 -35
-9 -4 4 -2 5 5 0 11 -6 12 -3 3 14 -15 27 -19 27 -15 -1 6 -39 9 -53 18 -66 4
-7 5 -16 2 -19 -3 -4 -6 -1 -6 6 0 7 -5 9 -10 6 -8 -5 -7 -12 2 -23 12 -14 10
-14 -11 -3 -19 11 -22 11 -16 0 6 -9 3 -11 -8 -6 -9 3 -19 2 -22 -4 -4 -5 -3
-9 2 -8 22 4 33 -3 33 -21 0 -18 11 -25 33 -21 5 1 6 -3 2 -8 -3 -6 -13 -7
-22 -4 -10 4 -14 2 -10 -4 4 -6 -3 -8 -17 -6 -26 5 -43 -11 -25 -23 8 -4 9 -3
5 4 -4 7 -2 12 4 12 6 0 8 -11 6 -26 -4 -18 -1 -24 8 -21 7 3 13 -1 13 -8 0
-8 -7 -11 -16 -7 -14 5 -14 4 -1 -13 15 -18 14 -18 -13 0 -25 16 -26 19 -11
30 15 11 15 12 -2 19 -10 4 -15 4 -11 0 4 -4 -1 -16 -10 -27 -10 -11 -12 -17
-6 -13 9 5 13 0 13 -13 0 -11 6 -19 12 -17 7 1 10 1 5 -1 -4 -3 -4 -10 0 -16
3 -7 -5 -2 -19 11 -18 16 -25 18 -25 8 0 -8 4 -13 9 -10 4 3 8 0 8 -6 0 -6 -8
-14 -17 -17 -14 -6 -12 -9 12 -19 17 -7 23 -13 15 -14 -10 0 -16 -9 -16 -25 0
-14 3 -25 6 -25 4 0 7 -7 7 -15 0 -8 -5 -11 -10 -8 -5 3 -8 0 -5 -8 3 -8 10
-14 15 -14 6 0 14 -3 18 -7 9 -9 -17 -4 -34 6 -11 7 -13 5 -8 -7 6 -15 -3 -21
-24 -19 -4 1 -6 -6 -5 -16 0 -9 -5 -16 -12 -14 -8 1 -11 -2 -7 -8 5 -8 11 -7
21 1 16 13 19 -2 4 -17 -7 -7 -6 -11 4 -11 8 0 13 3 11 7 -2 3 0 12 4 18 6 10
11 9 21 -3 11 -13 10 -15 -1 -10 -10 4 -15 -2 -16 -15 -2 -17 1 -19 20 -9 22
10 22 10 2 -7 -14 -11 -16 -18 -7 -21 6 -3 12 -9 12 -14 0 -5 -9 -4 -19 3 -11
7 -19 16 -18 22 1 5 -6 11 -16 12 -15 2 -15 1 -1 -3 14 -4 14 -7 3 -14 -10 -6
-10 -9 -1 -9 6 0 12 -5 12 -11 0 -5 -5 -7 -12 -3 -7 4 -8 3 -4 -4 4 -7 1 -12
-6 -12 -10 0 -10 -2 1 -9 20 -13 24 -44 5 -37 -9 3 -12 1 -9 -4 12 -20 14 -50
2 -50 -8 0 -8 -3 1 -9 8 -4 13 -11 13 -15 -1 -3 1 -6 4 -6 3 0 10 0 17 0 6 0
3 7 -8 16 -18 15 -18 15 2 5 12 -6 25 -7 30 -3 12 9 -38 -50 -51 -61 -6 -5 -3
-7 7 -4 9 3 19 -1 22 -9 3 -9 9 -13 14 -10 4 2 8 -4 9 -14 1 -11 -3 -22 -8
-25 -5 -4 -7 -10 -4 -15 3 -4 -3 -7 -12 -6 -11 0 -18 -6 -18 -18 0 -11 -6 -21
-14 -24 -9 -3 -11 0 -6 8 6 9 4 11 -4 5 -9 -5 -10 -10 -2 -18 7 -7 14 -7 24 2
12 9 16 8 20 -3 4 -9 1 -18 -5 -22 -7 -4 -8 -3 -4 4 5 8 1 10 -9 5 -9 -3 -12
-9 -7 -12 5 -3 8 -14 6 -24 -1 -9 2 -15 7 -11 5 3 9 1 9 -5 0 -6 6 -8 14 -5 8
3 17 1 21 -5 3 -6 0 -9 -8 -5 -8 3 -18 1 -22 -5 -3 -6 0 -11 7 -11 9 0 9 -3
-2 -10 -18 -12 -40 -14 -25 -2 15 11 17 32 2 26 -18 -7 -19 -44 -1 -44 8 0 13
-4 9 -9 -3 -5 -1 -12 5 -16 5 -3 10 -11 10 -16 0 -6 -4 -8 -9 -4 -12 7 -43
-24 -36 -36 7 -11 -7 -12 -21 -1 -5 4 -1 -1 9 -10 11 -10 15 -18 11 -18 -5 0
0 -7 10 -15 16 -12 17 -15 4 -15 -8 0 -23 10 -32 23 -16 22 -16 22 -6 0 13
-29 13 -36 -2 -27 -7 4 -10 3 -5 -1 4 -5 -1 -18 -10 -29 -14 -15 -14 -18 -2
-8 9 6 20 8 24 4 5 -4 5 -2 1 5 -3 6 -2 15 4 18 7 4 10 -3 8 -22 -2 -19 1 -27
10 -25 8 1 11 -2 7 -8 -5 -8 -11 -7 -21 1 -17 14 -19 -2 -3 -18 9 -9 7 -10 -9
-6 -17 4 -20 9 -12 24 9 15 7 17 -5 13 -9 -4 -13 -9 -11 -12 3 -3 1 -11 -5
-19 -6 -7 -8 -13 -3 -13 5 0 2 -5 -6 -11 -13 -9 -12 -10 3 -5 11 3 20 0 23 -9
4 -8 11 -12 18 -8 6 3 2 -4 -8 -16 -22 -25 -27 -55 -15 -89 6 -15 5 -21 -1
-17 -6 3 -10 13 -10 21 0 8 -5 14 -12 14 -9 0 -9 3 0 12 15 15 15 28 1 28 -5
0 -7 -5 -4 -10 3 -6 -1 -13 -9 -16 -13 -5 -13 -8 -2 -20 8 -7 12 -23 9 -34 -5
-18 5 -25 30 -21 5 1 6 -3 2 -8 -4 -7 -14 -6 -30 1 -28 12 -30 19 -14 35 8 8
7 13 -1 18 -6 4 -17 2 -23 -4 -9 -9 -7 -10 8 -5 17 7 18 5 8 -7 -7 -9 -11 -26
-8 -38 3 -15 0 -21 -8 -18 -7 3 -14 -3 -14 -13 -2 -17 0 -17 17 -3 11 9 16 21
13 27 -4 6 1 5 10 -3 17 -13 14 -36 -3 -26 -10 6 -30 -26 -30 -50 0 -9 5 -13
10 -10 6 4 9 1 8 -7 -2 -7 3 -12 10 -10 8 1 11 -2 7 -8 -3 -6 -10 -8 -14 -6
-4 3 -13 0 -21 -5 -13 -8 -13 -10 0 -19 10 -6 11 -10 3 -10 -7 0 -10 -7 -7
-17 5 -15 4 -16 -5 -3 -6 8 -11 13 -12 10 0 -3 -2 -13 -4 -23 -2 -13 1 -17 12
-13 12 5 13 4 5 -7 -7 -8 -8 -18 -4 -22 4 -5 2 -5 -5 -1 -18 10 -26 -13 -12
-32 10 -13 10 -14 1 -6 -14 12 -62 7 -62 -6 0 -4 11 -6 25 -5 14 2 23 -1 19
-6 -3 -5 -10 -7 -15 -4 -5 4 -9 1 -9 -5 0 -6 -4 -8 -10 -5 -18 11 -11 -4 12
-26 l23 -21 -23 11 c-18 10 -23 9 -28 -4 -3 -8 -10 -12 -15 -9 -5 3 -9 0 -9
-5 0 -14 17 -14 25 -1 4 6 11 8 16 4 5 -3 7 -10 3 -15 -3 -5 -10 -7 -15 -4 -5
4 -9 1 -9 -4 0 -6 6 -11 13 -11 6 0 4 -5 -6 -11 -9 -6 -14 -16 -11 -22 4 -7 3
-8 -1 -4 -13 11 -15 38 -3 31 7 -4 8 -2 4 4 -9 14 -36 2 -57 -25 -13 -17 -13
-17 7 0 28 24 41 22 19 -3 -23 -25 -28 -52 -12 -62 8 -5 6 -8 -5 -8 -10 0 -18
-4 -18 -10 0 -5 7 -10 15 -10 8 0 15 -4 15 -10 0 -5 -7 -6 -17 -3 -9 4 -14 2
-10 -3 3 -6 -4 -11 -16 -11 -17 -2 -19 0 -7 7 11 7 7 9 -14 7 -27 -2 -51 -27
-26 -27 6 0 8 5 5 10 -9 15 7 11 30 -7 17 -13 17 -15 2 -10 -11 4 -20 1 -24
-8 -3 -10 -13 -14 -27 -10 -15 5 -17 4 -7 -3 11 -8 11 -10 0 -15 -9 -4 -10 -6
-2 -6 7 -1 10 -8 7 -16 -6 -14 -8 -14 -19 1 -10 15 -12 14 -10 -7 1 -13 8 -23
14 -22 6 2 11 -4 11 -13 0 -8 5 -12 10 -9 7 5 8 11 1 19 -6 7 -6 17 -1 26 5 8
7 17 5 20 -2 3 6 12 18 20 20 12 21 12 8 -3 -11 -14 -11 -20 0 -34 13 -16 12
-17 -4 -4 -16 13 -18 12 -13 -12 3 -17 -2 -31 -15 -43 -20 -18 -20 -18 3 -36
15 -12 17 -16 5 -12 -12 4 -16 2 -14 -7 2 -8 2 -11 0 -6 -3 4 -8 5 -13 2 -4
-2 -6 9 -5 25 1 17 -2 30 -7 30 -6 0 -8 -6 -5 -14 3 -7 1 -18 -4 -23 -6 -6 -4
-14 6 -23 8 -7 15 -17 15 -22 0 -6 -7 -5 -15 2 -9 7 -18 10 -22 6 -3 -3 0 -6
8 -6 12 0 11 -2 -1 -11 -10 -7 -11 -12 -4 -15 6 -3 20 -12 30 -20 10 -9 13
-13 6 -9 -7 3 -25 8 -40 10 -15 2 -21 2 -14 -1 10 -5 10 -9 0 -22 -11 -15 -11
-15 3 -5 9 7 20 9 24 5 5 -4 5 -1 0 7 -5 10 -4 12 4 7 6 -4 8 -12 5 -18 -4 -6
0 -14 7 -19 10 -6 8 -8 -8 -6 -12 0 -19 5 -16 10 3 5 -4 4 -16 -3 -19 -10 -20
-14 -9 -28 11 -13 11 -15 -2 -10 -11 4 -16 -1 -18 -15 -1 -16 1 -18 7 -8 5 7
14 10 21 6 6 -4 23 3 38 16 l27 24 -23 -26 c-12 -14 -19 -29 -15 -32 12 -13
-13 -7 -26 5 -11 11 -13 10 -8 -4 3 -10 2 -20 -3 -23 -4 -3 -10 0 -12 6 -2 6
-12 0 -23 -13 -11 -13 -13 -17 -5 -11 18 17 33 17 24 1 -6 -10 -4 -10 7 -1 16
16 29 17 29 2 0 -5 -4 -8 -9 -5 -5 3 -12 -1 -15 -10 -3 -8 -10 -13 -15 -9 -5
3 -13 0 -17 -6 -4 -8 -3 -9 4 -5 7 4 12 2 12 -3 0 -6 -5 -11 -12 -11 -6 0 -8
-3 -4 -7 4 -5 13 0 20 9 8 11 17 14 27 7 11 -7 11 -9 -3 -9 -10 0 -18 -5 -18
-11 0 -6 7 -8 16 -5 9 3 12 2 9 -5 -4 -5 -16 -7 -28 -4 -21 6 -21 6 -3 -9 10
-9 23 -13 29 -9 6 3 7 1 3 -5 -4 -6 -14 -8 -23 -5 -14 5 -13 3 2 -23 11 -18
11 -22 2 -11 -11 14 -16 15 -21 5 -3 -7 -3 -1 -1 14 2 16 0 28 -6 28 -5 0 -7
-16 -4 -34 3 -29 1 -34 -13 -30 -14 5 -15 4 -2 -5 13 -9 13 -11 0 -11 -12 0
-12 -2 -2 -9 8 -4 13 -11 13 -15 -2 -11 -36 -43 -43 -39 -4 2 -10 -2 -14 -9
-4 -7 -3 -10 1 -5 5 4 18 -1 29 -10 14 -12 17 -13 9 -3 -7 9 -8 21 -4 29 10
16 58 23 66 11 3 -5 -6 -7 -20 -4 l-26 5 18 -28 c10 -15 12 -24 5 -19 -7 4
-19 3 -27 -4 -8 -6 -19 -9 -24 -6 -5 4 -13 1 -17 -5 -4 -7 -3 -9 4 -5 6 4 11
-1 11 -11 0 -23 5 -45 14 -59 4 -7 -2 -10 -16 -9 -32 4 -32 4 -12 18 12 10 14
16 7 21 -7 4 -12 3 -12 -3 0 -5 -9 -8 -21 -6 -17 3 -19 1 -9 -9 6 -8 7 -16 3
-18 -4 -3 -3 -4 2 -3 19 4 34 -42 20 -61 -9 -13 -14 -14 -20 -4 -5 9 -4 11 3
6 8 -5 11 0 9 13 -7 44 -16 32 -18 -21 0 -21 -38 -50 -52 -41 -6 3 -7 1 -3 -5
5 -9 13 -9 28 -1 18 10 20 9 15 -5 -3 -8 -2 -18 3 -21 4 -3 10 1 13 7 3 10 8
10 18 -1 8 -8 9 -11 2 -7 -6 3 -16 -2 -22 -11 -6 -10 -11 -13 -11 -7 0 7 -9
14 -19 17 -14 3 -18 1 -14 -9 3 -8 9 -11 14 -8 5 3 9 -1 9 -9 0 -8 7 -14 16
-13 9 0 18 -7 19 -17 2 -9 -1 -15 -6 -11 -5 3 -6 10 -3 16 4 6 1 9 -7 6 -8 -3
-22 -1 -31 4 -14 6 -16 5 -12 -7 4 -8 13 -15 22 -15 8 0 12 -3 8 -8 -11 -10
-30 -9 -38 3 -5 7 -8 6 -8 -1 0 -7 9 -22 19 -35 16 -19 22 -22 32 -11 7 6 18
12 23 12 6 0 3 -5 -7 -11 -9 -6 -15 -14 -12 -20 4 -5 1 -9 -5 -9 -7 0 -10 -7
-6 -15 8 -22 -2 -18 -15 6 -9 17 -8 20 2 14 8 -5 10 -4 5 3 -10 17 -23 15 -30
-4 -4 -10 -2 -13 6 -8 8 5 9 -3 5 -27 -3 -19 -3 -28 0 -21 2 6 9 12 15 12 7 0
7 -4 -1 -13 -8 -10 -7 -17 2 -26 9 -11 9 -14 -1 -18 -6 -3 -9 -10 -6 -15 5 -7
2 -8 -6 -3 -9 5 -10 2 -6 -13 5 -13 1 -22 -11 -26 -10 -4 -19 -2 -21 3 -7 21
-20 10 -17 -14 1 -14 -2 -28 -6 -31 -5 -3 -7 -16 -5 -30 3 -16 0 -24 -9 -24
-8 0 -16 -3 -18 -7 -3 -5 5 -8 18 -8 17 0 22 5 19 18 -1 10 1 15 7 12 5 -4 6
-11 3 -17 -5 -7 -2 -9 8 -6 8 4 15 1 15 -7 0 -8 -7 -11 -15 -7 -11 4 -13 1 -7
-8 5 -9 4 -11 -3 -6 -19 11 -14 -5 6 -20 16 -13 16 -14 -2 -7 -14 5 -17 3 -11
-6 6 -11 3 -11 -16 -1 -13 7 -21 9 -17 5 4 -5 2 -15 -5 -24 -11 -14 -10 -14 6
-2 10 8 17 9 17 3 0 -6 -8 -16 -17 -22 -17 -11 -17 -11 -1 -6 10 3 18 1 18 -4
0 -6 -4 -10 -9 -10 -5 0 -12 -7 -15 -16 -5 -14 -4 -15 9 -4 11 9 15 9 15 1 0
-6 -7 -14 -15 -17 -8 -4 -15 -10 -15 -15 0 -5 11 -2 25 7 24 16 25 16 18 -1
-4 -13 -3 -16 6 -10 10 6 11 3 2 -14 -7 -12 -9 -27 -5 -33 4 -7 3 -8 -4 -4 -7
4 -12 1 -12 -8 0 -8 -8 -20 -17 -26 -17 -11 -17 -11 -1 -6 10 3 18 1 18 -4 0
-6 -5 -10 -11 -10 -6 0 -8 -9 -4 -22 6 -19 5 -21 -6 -11 -7 7 -18 13 -23 13
-6 0 -3 -5 7 -11 9 -6 15 -15 11 -20 -3 -6 3 -5 14 2 17 11 19 16 9 28 -10 12
-9 13 2 6 10 -5 12 -4 7 3 -5 8 -1 10 9 5 9 -3 13 -9 8 -12 -11 -8 -17 -44 -5
-37 5 3 9 -1 9 -9 0 -8 -4 -12 -8 -9 -4 2 -7 -8 -7 -23 1 -51 -2 -64 -12 -58
-8 5 -7 11 1 21 8 10 8 14 0 14 -6 0 -11 -5 -11 -11 0 -5 -6 -7 -13 -3 -9 6
-9 4 1 -8 10 -12 10 -18 1 -24 -8 -5 -3 -11 14 -21 18 -9 24 -18 20 -30 -4 -9
-2 -14 3 -11 5 4 10 -7 10 -23 2 -32 -5 -33 -11 -2 -1 10 -8 17 -14 16 -15 -4
-14 10 1 25 9 9 9 12 0 12 -7 0 -12 -5 -12 -11 0 -5 -5 -7 -12 -3 -12 7 -5 -8
16 -35 14 -18 17 -43 5 -57 -7 -8 -6 -15 2 -20 8 -5 10 -3 4 7 -5 8 -4 10 0 6
5 -4 10 -14 11 -22 2 -11 -2 -12 -16 -5 -25 13 -40 12 -17 -1 22 -13 22 -30 0
-23 -14 5 -15 4 -4 -4 7 -5 9 -12 5 -14 -5 -3 -4 -3 3 -2 6 2 14 -2 17 -9 3
-9 5 -9 5 1 1 6 6 12 12 12 5 0 7 -5 3 -12 -5 -8 -2 -9 10 -5 10 4 15 3 11 -3
-4 -6 -18 -8 -33 -5 -25 4 -41 -8 -42 -29 0 -6 7 -1 15 10 8 10 15 14 15 7 0
-6 9 -10 20 -8 11 2 22 0 25 -4 2 -5 -8 -7 -24 -6 -21 2 -28 -1 -24 -11 3 -7
8 -13 11 -12 19 2 32 -3 32 -13 0 -8 -4 -9 -13 0 -14 11 -27 5 -27 -11 0 -5 4
-7 9 -3 5 3 12 1 15 -4 4 -5 2 -12 -3 -16 -5 -3 -8 -14 -6 -24 2 -11 -3 -27
-10 -38 -8 -10 -15 -13 -15 -7 0 6 3 14 7 18 4 3 8 13 9 22 2 11 -1 12 -10 5
-7 -6 -17 -7 -21 -3 -5 4 -4 0 1 -8 4 -8 9 -21 9 -27 0 -7 4 -12 9 -12 19 2
25 -26 10 -49 -8 -12 -12 -27 -9 -32 3 -5 1 -11 -5 -15 -6 -3 -8 -18 -5 -32 2
-14 0 -34 -6 -44 -5 -11 -7 -19 -5 -19 9 0 36 57 31 64 -3 3 -2 4 2 1 10 -8
11 -45 1 -39 -4 3 -8 -2 -8 -10 0 -8 -8 -20 -17 -26 -17 -11 -17 -11 0 -6 9 3
17 1 17 -4 0 -6 -4 -10 -9 -10 -5 0 -12 -7 -15 -16 -5 -14 -4 -15 9 -4 11 9
15 9 15 1 0 -6 -7 -14 -15 -17 -8 -4 -15 -10 -15 -15 0 -5 11 -2 25 7 24 16
25 16 18 -1 -5 -14 -3 -16 8 -10 11 7 12 6 3 -6 -6 -8 -10 -22 -9 -32 2 -9 0
-15 -5 -12 -4 3 -10 -5 -13 -17 -5 -18 -8 -19 -21 -9 -9 8 -13 18 -9 24 4 6 1
7 -6 2 -9 -5 -7 -13 8 -29 20 -21 21 -24 21 -51 0 -8 4 -15 10 -15 12 0 9 22
-5 32 -6 4 -2 8 9 8 14 0 16 3 7 13 -11 14 -5 27 13 27 6 0 4 -5 -4 -10 -9 -6
-10 -10 -3 -10 6 0 11 -9 10 -20 -1 -11 -4 -20 -8 -20 -9 0 -5 -42 6 -61 4 -8
-2 -4 -14 9 -12 12 -27 22 -33 22 -7 0 -3 -7 8 -16 10 -8 14 -13 7 -10 -6 4
-15 1 -19 -5 -4 -7 -3 -9 3 -6 15 10 24 -18 10 -32 -17 -17 -17 -41 -1 -34 10
4 12 0 8 -11 -3 -9 -9 -14 -13 -12 -4 3 -7 -4 -7 -14 0 -10 4 -16 8 -14 4 3 8
1 8 -4 0 -16 33 -24 42 -10 5 9 8 10 8 1 0 -17 1178 -16 1199 1 11 8 13 8 8 0
-5 -9 489 -12 1988 -12 1850 0 1996 1 2006 16 10 16 10 16 5 0 -5 -16 3 -18
84 -16 49 1 87 5 84 9 -5 9 31 30 40 24 3 -3 4 -2 1 2 -8 11 -45 11 -38 0 4
-6 1 -7 -7 -2 -9 6 -11 4 -5 -6 7 -12 5 -12 -6 -1 -12 11 -12 14 1 22 8 5 17
7 21 4 4 -2 11 1 15 7 4 8 3 9 -4 5 -7 -4 -12 -2 -12 3 0 6 5 11 12 11 6 0 8
3 5 7 -4 3 -17 -2 -29 -13 -13 -10 -17 -12 -10 -4 15 18 16 34 0 24 -6 -4 -8
-3 -4 4 3 6 2 13 -4 17 -5 3 -10 11 -10 18 0 6 6 2 14 -8 13 -18 14 -17 14 8
0 15 -4 24 -9 22 -4 -3 -11 -1 -14 5 -4 6 -3 10 2 9 19 -3 27 2 15 10 -11 6
-9 10 7 14 18 4 19 2 10 -14 -7 -15 -6 -21 6 -25 8 -3 12 -10 9 -15 -3 -5 -9
-7 -13 -5 -3 3 -7 -3 -7 -13 0 -13 6 -17 19 -13 14 4 16 7 5 13 -12 8 -4 13
15 10 5 -1 1 9 -7 21 -19 27 -21 42 -3 32 8 -5 8 -3 -2 9 -7 9 -17 15 -21 12
-5 -3 -12 0 -16 6 -4 8 -3 9 4 5 7 -4 12 -2 12 4 0 6 5 8 13 3 16 -10 41 -14
32 -5 -4 4 -12 7 -18 7 -7 0 -12 10 -11 22 0 13 -4 19 -13 16 -9 -4 -11 0 -7
11 3 9 10 14 14 11 5 -3 12 0 16 6 4 7 3 9 -3 6 -5 -4 -10 6 -10 23 0 26 3 28
16 17 14 -11 14 -10 2 5 -7 10 -17 15 -22 12 -5 -3 -9 2 -9 11 0 9 4 13 10 10
7 -4 7 3 0 20 -12 32 -12 36 -2 32 4 -1 8 1 10 6 5 17 1 19 -15 6 -15 -12 -16
-12 -10 4 4 10 7 21 7 23 0 3 4 3 8 0 4 -2 6 12 4 32 -3 34 -2 35 11 19 13
-16 15 -16 21 -2 3 9 2 14 -3 10 -5 -3 -12 1 -14 7 -4 9 -12 5 -26 -12 -11
-14 -16 -26 -11 -28 17 -6 11 -21 -12 -32 -20 -10 -21 -10 -6 3 16 13 16 15 0
32 -9 10 -12 15 -5 11 7 -4 17 3 24 15 9 18 9 21 -3 16 -8 -3 -15 1 -15 8 0
10 5 11 19 4 14 -7 18 -6 18 6 0 10 -5 13 -12 9 -10 -6 -10 -4 0 8 8 10 9 19
3 22 -5 3 -11 0 -14 -6 -2 -7 -7 -10 -11 -7 -3 3 2 13 13 23 17 15 20 16 34 1
15 -14 16 -13 12 15 -2 18 1 30 8 30 7 0 6 4 -3 10 -8 5 -19 10 -25 10 -5 0
-3 -5 5 -10 8 -5 11 -10 5 -10 -5 0 -16 4 -23 9 -11 7 -11 9 2 14 9 4 16 12
16 18 0 8 -4 8 -15 -1 -13 -11 -14 -10 -9 3 3 8 12 18 20 21 8 3 13 2 10 -2
-2 -4 4 -8 14 -9 11 -1 23 3 26 9 4 6 3 8 -3 5 -6 -4 -22 -1 -37 6 -28 13 -37
30 -9 20 11 -4 14 -3 9 5 -5 8 -2 10 8 6 9 -3 13 -11 9 -18 -3 -6 3 -2 15 8
24 21 31 36 7 16 -12 -10 -16 -9 -21 4 -3 9 -10 13 -16 10 -5 -3 -4 3 3 14 7
12 16 19 20 16 4 -2 11 1 15 7 4 8 3 9 -4 5 -7 -4 -12 -2 -12 4 0 6 -4 9 -9 6
-5 -3 -16 5 -25 19 -14 21 -14 24 -1 19 8 -4 15 -14 16 -23 0 -10 2 -11 6 -4
3 9 10 10 23 3 13 -7 21 -7 25 0 4 6 3 10 -2 9 -20 -3 -29 2 -30 21 -1 13 2
18 9 14 6 -4 8 -3 4 4 -3 5 0 13 6 15 10 4 10 6 0 6 -7 1 -10 6 -6 13 4 7 3 8
-4 4 -7 -4 -12 -1 -12 8 0 8 5 18 10 21 13 8 13 25 -1 25 -5 0 -7 -5 -3 -12 5
-7 3 -8 -6 -3 -8 5 -11 4 -7 -1 3 -6 -3 -11 -15 -11 -20 -2 -20 -2 0 15 10 9
18 25 16 35 -1 9 2 15 7 11 5 -3 7 -10 4 -15 -4 -5 -1 -9 4 -9 14 0 14 17 1
25 -6 4 -7 12 -3 18 5 7 9 26 10 42 1 17 4 45 7 64 2 18 2 30 -1 27 -4 -3 -8
-16 -9 -28 -6 -39 -9 -53 -17 -65 -5 -8 -4 -13 2 -13 6 0 11 -5 11 -11 0 -8
-5 -8 -15 1 -10 8 -12 17 -6 24 11 13 -12 50 -24 38 -4 -4 -2 3 4 16 6 12 14
22 17 22 3 0 3 -4 0 -9 -4 -5 -3 -17 1 -28 6 -16 8 -15 13 7 4 14 1 38 -8 55
-8 17 -11 27 -7 23 5 -4 14 -3 22 3 9 9 13 8 13 0 0 -6 -4 -11 -10 -11 -5 0
-10 -5 -10 -11 0 -6 5 -7 13 -2 6 4 21 7 32 5 l20 -2 -20 9 c-11 5 -15 10 -10
11 6 0 2 5 -8 11 -9 5 -22 7 -27 4 -6 -3 -10 -1 -10 5 0 8 10 10 28 6 15 -4
22 -3 16 1 -6 4 -10 20 -8 36 1 15 -2 27 -7 27 -6 0 -8 -4 -5 -8 2 -4 -4 -8
-14 -9 -11 -1 -22 2 -25 8 -4 5 2 6 12 2 16 -6 17 -5 3 13 -14 18 -14 18 4 4
18 -14 19 -13 13 4 -6 15 -5 16 6 8 9 -8 17 -8 27 0 12 8 12 9 -2 4 -15 -4
-18 1 -16 35 1 25 -4 44 -13 49 -7 5 -10 12 -7 16 4 4 3 15 -3 25 -7 15 -7 19
3 17 7 -2 12 4 10 12 -2 8 0 12 4 7 4 -4 9 -18 11 -30 2 -17 1 -19 -7 -7 -7
12 -9 10 -7 -7 0 -12 5 -19 9 -17 5 3 8 2 7 -3 -1 -4 -1 -15 0 -23 1 -13 2
-13 11 0 5 8 6 19 2 25 -10 13 -9 37 2 54 6 9 5 12 -1 8 -6 -4 -14 0 -17 9 -3
8 -10 12 -16 9 -5 -3 -10 -1 -10 4 0 6 5 11 10 11 6 0 10 7 10 15 0 8 5 15 10
15 7 0 7 -6 1 -19 -8 -15 -7 -20 6 -25 9 -4 18 -4 21 -1 3 3 0 5 -6 5 -7 0
-12 8 -12 18 0 15 2 15 11 2 9 -13 10 -12 5 2 -3 11 2 21 12 27 15 9 14 10 -5
8 -12 0 -19 -5 -16 -11 3 -5 2 -6 -4 -3 -9 6 -10 25 -4 60 1 8 44 2 62 -9 8
-5 8 -1 0 14 -6 12 -17 19 -25 16 -7 -3 -16 2 -20 12 -5 13 -4 14 7 6 8 -7 17
-9 20 -5 4 3 13 0 22 -7 9 -7 18 -10 22 -6 3 3 1 6 -6 6 -7 0 -10 4 -6 9 3 5
0 13 -6 17 -8 5 -9 3 -4 -6 6 -9 4 -11 -5 -5 -11 7 -10 10 1 19 8 6 15 18 17
26 2 8 10 22 19 30 9 8 13 9 9 3 -5 -8 -1 -13 9 -13 9 0 13 -4 10 -10 -3 -5
-2 -10 3 -10 5 0 10 12 10 26 0 15 -4 21 -8 14 -5 -9 -9 -8 -13 2 -8 23 30 19
40 -5 8 -19 10 -19 16 -3 5 11 3 15 -4 10 -7 -4 -10 -1 -7 7 3 8 11 13 17 11
8 -1 9 2 5 10 -14 22 -13 37 2 31 8 -3 12 -8 9 -12 -2 -4 2 -8 9 -8 15 0 15
13 -1 41 -7 12 -13 15 -17 7 -4 -6 -13 -11 -19 -11 -7 0 -4 5 6 11 12 7 16 18
12 32 -5 22 -5 22 6 0 12 -23 39 -32 39 -12 0 5 -5 7 -12 3 -6 -4 -8 -3 -4 4
3 5 0 13 -6 15 -7 3 -5 6 6 6 11 1 16 4 13 7 -3 4 0 16 8 27 11 15 12 24 3 34
-6 7 -7 13 -3 13 4 0 2 6 -4 14 -9 11 -9 16 0 22 7 4 9 3 5 -4 -3 -6 -2 -13 4
-17 6 -4 8 -11 5 -16 -4 -5 1 -9 10 -9 9 0 14 -4 10 -9 -3 -5 -1 -12 4 -15 11
-7 9 12 -5 39 -12 23 -12 35 -1 53 7 9 2 11 -18 8 -15 -3 -24 -2 -20 2 3 4 11
8 16 8 5 1 14 2 19 3 17 2 11 21 -7 22 -15 0 -15 2 2 8 11 5 23 7 28 4 4 -2 7
3 7 12 0 9 4 14 9 10 5 -3 12 -1 15 4 4 5 1 13 -5 17 -8 5 -9 3 -4 -6 6 -9 4
-11 -4 -5 -9 5 -10 10 -2 18 7 7 16 6 28 -4 16 -13 17 -12 4 3 -7 10 -11 19
-7 19 3 1 10 2 15 3 5 0 12 4 16 8 9 9 -17 4 -34 -6 -8 -5 -16 -4 -21 5 -10
15 -4 29 13 29 7 0 6 -4 -3 -10 -8 -5 -10 -10 -4 -10 6 0 18 8 25 17 10 11 10
14 2 9 -7 -4 -13 -2 -13 3 0 6 8 11 18 12 14 0 14 2 -3 9 -11 5 -16 9 -12 9 5
1 1 11 -7 23 -11 16 -13 25 -4 35 7 9 7 13 0 13 -6 0 -16 -8 -21 -18 -6 -9
-11 -12 -11 -5 0 6 5 15 11 19 8 4 7 9 -2 16 -10 6 -6 7 11 2 23 -6 24 -6 10
11 -9 11 -10 16 -2 11 7 -4 12 -1 12 9 0 10 -5 13 -12 9 -7 -5 -8 -3 -4 5 5 7
15 10 23 7 8 -3 11 -1 8 4 -3 6 0 10 7 10 8 0 9 3 3 8 -13 9 -19 46 -6 38 5
-4 13 -2 16 4 4 6 3 10 -2 9 -22 -4 -25 2 -7 17 18 15 18 15 -2 5 -17 -8 -21
-18 -19 -46 1 -26 -1 -32 -10 -25 -12 10 -14 45 -2 56 12 12 8 26 -5 17 -19
-11 -39 -13 -32 -2 3 5 9 7 14 4 5 -3 11 -1 15 5 4 6 11 8 16 5 5 -4 17 -1 26
5 16 10 15 10 -4 5 -12 -3 -25 -1 -29 6 -4 7 -3 9 4 6 6 -5 8 1 5 15 -4 19 -3
20 6 8 6 -8 11 -10 11 -4 0 12 -30 41 -37 36 -3 -2 -8 0 -11 4 -4 4 -1 4 6 0
7 -4 12 -2 12 5 0 9 3 9 14 0 11 -9 16 -9 22 0 4 7 3 9 -4 5 -6 -3 -16 3 -23
15 -10 19 -9 21 5 16 9 -4 16 -3 16 2 0 5 -8 11 -18 13 -10 3 -18 15 -19 27
-1 18 2 21 15 16 14 -5 15 -4 5 6 -10 10 -16 10 -24 2 -9 -9 -17 -6 -31 13
-11 13 -23 22 -27 20 -4 -3 -8 1 -8 8 0 8 7 13 16 11 9 -1 15 -8 14 -14 -2 -6
2 -11 7 -11 6 0 13 0 18 0 11 0 8 25 -3 26 -19 1 -45 16 -45 25 0 11 22 7 33
-6 5 -6 7 -4 4 5 -2 8 -10 14 -17 12 -6 -1 -10 3 -7 10 2 7 10 12 16 10 7 -1
10 2 6 8 -5 8 -11 7 -21 -1 -13 -11 -19 -5 -14 16 1 5 -2 6 -6 2 -12 -12 -14
-38 -1 -30 7 4 8 0 4 -11 -4 -10 -7 -20 -7 -22 0 -2 -4 -4 -9 -4 -4 0 -7 11
-5 25 2 19 -6 32 -27 47 -30 22 -37 38 -18 38 5 0 7 -5 4 -10 -3 -5 -1 -10 4
-10 6 0 11 5 11 11 0 8 4 8 13 0 10 -8 14 -7 14 4 0 7 -5 13 -11 12 -6 -1 -10
5 -10 14 1 11 -5 15 -17 12 -15 -4 -18 -1 -13 13 5 16 4 16 -5 4 -8 -11 -7
-18 6 -27 9 -7 12 -13 6 -13 -7 0 -15 5 -18 10 -5 8 -12 7 -22 -2 -10 -8 -8 1
6 25 23 42 28 60 8 33 -12 -16 -14 -16 -26 -2 -7 8 -18 14 -24 12 -7 -1 -9 -1
-4 1 13 8 7 23 -9 23 -10 0 -14 6 -11 15 4 8 2 17 -3 20 -6 4 -10 13 -10 21 0
8 5 12 10 9 6 -4 7 -11 4 -17 -4 -7 -2 -8 4 -4 7 4 9 -1 7 -15 -2 -12 -2 -19
2 -15 3 3 15 -8 25 -25 11 -17 22 -28 26 -25 3 4 0 11 -7 16 -8 4 -11 15 -8
24 4 9 1 15 -5 13 -7 -1 -12 3 -13 10 0 6 -3 14 -7 18 -4 4 -4 14 -1 23 4 15
3 15 -6 2 -9 -13 -15 -8 -12 12 1 9 -27 4 -36 -7 -4 -4 -2 -5 6 0 10 6 12 4 7
-4 -6 -9 -11 -9 -22 0 -15 13 -19 23 -5 15 5 -3 12 1 15 10 3 8 2 12 -4 9 -14
-9 -12 8 3 24 7 9 7 11 1 8 -7 -4 -15 0 -18 9 -9 22 -8 26 6 18 6 -4 8 -3 5 3
-10 16 -52 10 -53 -7 -2 -30 -4 -32 -19 -20 -8 6 -20 8 -27 4 -10 -5 -10 -4
-1 6 10 11 15 11 28 0 9 -8 15 -8 15 -2 0 6 -10 18 -22 26 -15 11 -18 16 -8
16 9 1 4 7 -10 14 -15 9 -26 24 -27 40 -1 18 2 24 10 20 9 -5 9 -3 0 6 -16 17
-26 8 -25 -25 0 -14 -4 -25 -9 -25 -5 0 -8 5 -6 12 1 7 -9 13 -25 13 -15 0
-31 5 -35 9 -4 5 -2 6 5 2 7 -4 12 -1 12 8 0 19 -38 46 -55 40 -7 -3 -16 -1
-19 4 -3 5 6 8 20 6 24 -2 25 -1 10 15 -9 10 -13 21 -9 26 5 4 2 5 -5 1 -7 -4
-10 -12 -7 -17 9 -14 -2 -11 -46 11 -22 12 -37 25 -34 30 3 6 1 18 -5 27 -10
16 -10 15 -5 -4 4 -16 0 -25 -17 -34 -19 -9 -21 -9 -10 2 6 7 12 18 12 23 0 6
-5 4 -10 -4 -8 -13 -12 -12 -27 4 -17 18 -17 19 2 12 15 -5 17 -4 9 4 -9 9
-17 9 -33 1 -20 -11 -25 -8 -22 12 1 5 -3 6 -9 2 -6 -4 -19 -1 -28 7 -15 11
-16 11 -4 -3 10 -14 10 -18 -4 -23 -21 -8 -24 -8 -24 5 0 5 4 7 10 4 6 -3 7 1
4 10 -6 14 -8 14 -20 -2 -7 -10 -14 -14 -14 -9 0 5 -8 2 -17 -5 -11 -10 -14
-10 -9 -1 7 12 -4 16 -31 13 -7 -1 -13 3 -13 8 0 5 9 8 20 5 11 -2 30 -6 41
-9 12 -2 19 -2 15 2 -3 3 -1 12 5 20 7 8 8 13 1 13 -5 0 -12 -7 -16 -15 -3 -8
-12 -12 -21 -9 -8 3 -13 10 -10 14 3 5 -3 7 -12 6 -10 -2 -22 2 -26 8 -6 7 -7
4 -3 -6 3 -10 1 -18 -5 -18 -6 0 -8 -9 -4 -20 3 -11 2 -20 -3 -20 -6 0 -9 11
-8 24 3 23 -16 42 -36 38 -5 -1 -8 3 -8 8 0 6 -5 10 -11 10 -5 0 -7 -4 -4 -10
3 -5 -3 -10 -13 -10 -20 0 -46 -23 -37 -32 3 -2 -2 -5 -10 -5 -13 0 -13 2 0
17 8 9 15 22 15 29 0 7 5 9 12 5 7 -5 8 -3 3 5 -5 9 -11 9 -17 3 -13 -13 -40
-4 -31 11 3 5 1 7 -4 4 -11 -7 -28 20 -24 36 1 5 -3 6 -9 2 -7 -4 -3 -17 10
-35 13 -18 16 -31 10 -35 -5 -3 -10 0 -10 7 0 10 -3 9 -11 -2 -8 -12 -9 -10
-4 7 5 18 3 22 -9 17 -9 -3 -13 -11 -9 -18 4 -7 1 -7 -9 1 -8 7 -18 11 -21 8
-4 -3 -5 -2 -3 1 3 3 -7 17 -22 31 -15 14 -19 20 -9 13 19 -14 23 0 5 18 -8 8
-8 12 -1 12 20 0 34 -25 20 -40 -8 -9 -8 -11 0 -6 6 3 14 0 17 -6 2 -7 4 -3 2
9 -1 11 -7 27 -14 35 -9 11 -9 17 1 27 9 9 9 14 -3 21 -12 8 -13 10 -1 10 8 0
12 3 8 6 -3 3 -11 3 -17 -1 -8 -5 -8 -11 1 -21 7 -9 8 -14 1 -14 -6 0 -19 -3
-29 -6 -16 -6 -16 -5 2 10 l20 18 -20 -6 c-18 -5 -18 -5 -4 6 9 7 15 19 13 26
-1 7 0 8 3 2 3 -6 11 -7 23 0 13 7 20 6 23 -3 4 -8 6 -7 6 4 1 8 -4 20 -9 25
-8 8 -6 15 6 25 16 13 17 12 10 -6 -5 -15 -4 -17 5 -8 17 17 2 35 -19 24 -14
-7 -18 -5 -18 9 0 10 5 16 10 12 16 -9 55 -11 61 -2 3 4 -3 7 -12 6 -10 0 -18
4 -18 9 0 6 -4 17 -10 25 -8 13 -7 13 10 0 17 -13 18 -13 13 1 -4 10 -1 16 8
16 12 0 11 -5 -2 -26 l-15 -26 19 22 c11 12 23 19 27 15 4 -4 3 3 -4 15 -11
22 -25 24 -51 8 -13 -7 -13 -6 -2 7 13 16 35 18 48 6 8 -8 34 2 34 13 0 4 -6
6 -13 3 -8 -3 -20 3 -28 12 -12 16 -12 17 1 9 8 -5 25 -8 38 -6 13 1 29 -2 36
-8 9 -8 13 -7 13 4 0 8 -4 12 -8 10 -4 -3 -9 1 -12 9 -3 8 1 17 9 20 8 3 14 0
14 -7 0 -6 7 -1 16 11 8 12 20 20 26 16 5 -3 2 8 -7 25 -9 19 -20 29 -27 25
-7 -4 -8 -3 -4 5 4 6 11 9 16 6 5 -3 11 -1 15 5 4 6 10 8 14 6 4 -3 15 8 25
25 18 30 30 36 41 19 8 -13 25 -13 25 1 0 5 -3 8 -7 6 -5 -3 -14 2 -22 11 -13
13 -12 14 11 10 19 -4 25 -1 21 9 -3 7 -8 11 -13 8 -4 -2 -16 2 -26 11 -18 14
-18 15 2 5 24 -12 34 -6 34 21 0 13 -4 17 -12 12 -8 -4 -10 -3 -5 2 5 5 14 9
20 9 5 0 12 6 15 14 3 8 0 11 -7 7 -17 -11 -13 0 6 15 9 8 14 9 11 4 -4 -6 -3
-17 3 -25 7 -12 9 -11 10 5 1 11 1 24 0 28 -1 5 3 6 8 2 6 -3 9 -11 7 -18 -1
-7 -1 -9 1 -4 3 4 9 4 15 1 5 -3 4 3 -3 15 -8 11 -20 22 -29 25 -13 3 -12 4 1
5 9 0 22 -6 29 -14 7 -8 16 -15 21 -15 5 0 0 9 -12 21 -15 15 -17 24 -10 33 6
7 8 24 6 38 -3 15 1 31 10 38 10 9 15 9 15 1 0 -6 -4 -11 -9 -11 -6 0 -9 -9
-8 -19 0 -11 4 -18 8 -15 4 2 12 -4 18 -13 6 -10 11 -13 11 -7 0 6 -7 17 -15
24 -11 9 -12 16 -5 25 6 7 7 21 3 30 -5 14 -3 16 7 10 10 -6 11 -4 4 6 -13 21
-14 39 -1 39 6 0 2 6 -8 14 -11 8 -26 12 -35 9 -10 -3 -10 -1 3 7 9 6 17 17
17 25 0 9 -6 12 -17 9 -15 -5 -15 -4 -3 4 8 6 18 8 22 6 4 -3 8 0 8 5 0 6 5
11 11 11 5 0 7 -6 3 -12 -5 -9 -2 -9 9 1 18 14 22 22 10 20 -5 -1 -15 -1 -23
0 -13 1 -13 2 0 11 11 7 11 10 2 10 -7 0 -11 4 -7 9 3 5 1 12 -4 15 -5 3 -7
-8 -6 -24 1 -17 -2 -30 -7 -30 -5 0 -8 8 -6 18 2 9 -3 16 -9 14 -24 -4 -13 14
18 32 21 12 27 21 19 26 -6 4 -11 10 -11 14 3 19 0 26 -11 24 -8 -2 -12 7 -11
25 1 16 -2 25 -8 22 -5 -4 -9 -3 -8 2 4 20 -2 32 -18 36 -10 3 -6 4 8 4 18 -1
25 -6 22 -14 -6 -16 33 -18 43 -2 4 8 -1 9 -16 4 -15 -5 -20 -4 -16 3 8 13
-22 31 -44 27 -10 -2 -16 5 -16 17 0 17 2 17 12 4 18 -25 25 -6 7 20 -14 22
-14 24 1 18 9 -3 14 -10 11 -14 -3 -5 -1 -11 5 -15 6 -4 7 -12 4 -18 -4 -7 -4
-9 1 -5 4 4 13 3 20 -2 8 -7 12 -5 12 5 0 7 -5 13 -11 12 -14 -3 -15 24 -2 42
8 11 8 13 -2 7 -14 -8 -32 29 -26 57 1 10 -1 15 -7 12 -5 -4 -9 -1 -9 4 0 6
-4 11 -8 11 -5 0 -9 -7 -9 -15 0 -8 4 -12 8 -9 4 2 11 -1 14 -7 5 -7 1 -9 -11
-7 -11 2 -18 10 -16 17 2 9 -3 11 -13 8 -8 -4 -15 -2 -15 3 0 6 6 10 14 10 24
0 28 17 9 36 -13 12 -14 19 -5 22 6 2 12 8 12 13 0 6 -4 8 -9 4 -5 -3 -12 -1
-16 5 -4 7 -13 7 -26 -1 -12 -6 -23 -8 -26 -5 -7 7 7 27 16 22 4 -3 13 0 21 5
13 9 13 10 0 6 -9 -2 -21 8 -31 26 -13 24 -17 27 -22 13 -4 -9 -3 -15 2 -12
10 7 23 -19 14 -28 -4 -3 -11 -6 -17 -6 -6 0 -4 5 4 10 13 9 13 10 0 11 -8 1
-19 1 -23 0 -5 -1 -6 3 -2 8 3 6 -4 15 -15 21 -15 8 -19 17 -15 31 4 11 2 19
-6 19 -8 0 -8 5 2 18 13 15 12 16 -3 3 -10 -7 -16 -17 -13 -21 3 -5 2 -10 -2
-13 -5 -2 -2 -2 5 -1 9 3 10 -1 2 -16 -11 -20 -21 -27 -19 -12 1 4 0 10 -1 15
-5 14 -8 27 -9 45 -2 13 -4 12 -12 -6 -5 -13 -13 -21 -18 -17 -5 3 -12 1 -16
-5 -3 -5 -12 -10 -18 -10 -7 0 -4 5 6 11 10 6 14 15 10 22 -5 9 -3 9 8 0 12
-10 15 -8 16 10 2 15 0 18 -6 9 -5 -8 -11 -13 -15 -13 -20 3 -26 0 -20 -11 4
-7 3 -8 -4 -4 -13 8 -6 33 11 39 7 2 4 3 -5 2 -10 -2 -20 1 -23 6 -9 13 -35
-1 -49 -28 -13 -25 -13 -25 -12 10 1 19 4 33 8 30 14 -8 8 8 -9 25 -16 16 -16
16 -10 0 3 -10 2 -18 -3 -18 -5 0 -6 -8 -3 -17 7 -17 6 -17 -11 0 -10 9 -22
15 -27 12 -5 -4 -9 -1 -9 5 0 7 8 9 19 5 22 -7 23 8 2 40 -8 13 -11 15 -7 3 6
-20 -15 -30 -35 -16 -11 8 -11 9 2 5 12 -4 17 1 17 20 0 21 -2 23 -10 10 -5
-10 -14 -17 -20 -17 -9 0 -9 3 0 12 17 17 15 33 -3 18 -9 -7 -18 -10 -22 -6
-4 3 2 13 13 21 19 15 19 15 -1 8 -17 -6 -18 -4 -8 8 18 22 -3 42 -27 26 -14
-8 -23 -7 -36 4 -16 12 -17 12 -11 -4 4 -11 3 -16 -4 -12 -5 4 -8 12 -6 18 2
7 1 19 -4 28 -5 11 -3 16 7 16 8 0 13 -6 10 -12 -6 -17 13 -35 29 -28 10 3 9
9 -6 24 -10 10 -22 19 -26 20 -5 0 -15 6 -23 13 -8 7 -22 16 -30 20 -9 5 -8 2
2 -7 10 -8 15 -17 12 -20 -4 -4 -15 5 -26 18 -19 24 -46 26 -32 3 4 -7 2 -8
-5 -4 -8 6 -9 12 -2 20 15 18 1 28 -18 13 -9 -7 -7 -2 4 14 11 15 27 24 35 22
10 -3 9 0 -3 7 -9 6 -15 15 -13 19 3 4 -5 8 -16 8 -19 2 -19 1 -4 -10 16 -12
16 -13 -3 -13 -11 0 -18 2 -16 5 3 2 -3 13 -12 24 -10 11 -12 17 -5 13 19 -11
14 5 -5 20 -12 8 -22 9 -30 3 -7 -7 -14 -6 -18 1 -4 6 -3 9 2 8 4 -2 8 2 8 7
0 6 -4 9 -8 7 -5 -1 -6 2 -3 7 8 12 41 7 41 -7 0 -6 4 -14 9 -19 5 -5 6 -3 2
5 -4 6 -3 12 3 12 5 0 12 -6 14 -12 4 -10 6 -10 6 0 1 7 -6 15 -14 18 -8 4
-13 10 -10 14 3 4 -11 7 -30 6 -29 -1 -33 1 -20 10 19 14 20 28 0 20 -8 -3
-27 6 -42 21 -24 22 -24 24 -5 14 15 -8 22 -8 22 -1 0 6 5 8 11 4 8 -5 8 -9
-1 -14 -9 -5 -9 -9 -1 -14 6 -4 11 -3 11 3 0 6 6 8 14 5 19 -7 27 8 14 26 -8
12 -9 12 -4 -2 6 -20 -4 -24 -21 -7 -6 6 -9 19 -6 28 4 11 1 10 -10 -4 -12
-15 -18 -17 -29 -7 -10 7 -18 8 -26 2 -8 -7 -9 -7 -3 1 6 8 5 17 -4 26 -14 14
-10 41 9 56 7 6 5 7 -5 4 -19 -6 -39 10 -35 27 2 6 1 8 -1 3 -3 -4 -9 -5 -14
-1 -8 5 -13 -10 -10 -29 1 -5 -3 -6 -9 -2 -6 4 -7 12 -1 24 11 20 8 57 -5 54
-14 -3 -17 -23 -3 -23 7 0 9 -3 6 -6 -8 -8 -37 14 -37 28 0 5 5 6 10 3 6 -3
10 -2 10 3 0 6 -7 13 -16 16 -22 8 -26 8 -19 -3 3 -5 1 -12 -4 -15 -4 -3 -7
12 -6 34 2 32 0 40 -12 38 -9 -2 -18 4 -20 12 -4 13 -3 13 6 0 9 -13 11 -13
11 3 0 9 -3 17 -7 18 -41 4 -55 13 -66 44 -2 6 -9 5 -18 -2 -12 -10 -17 -8
-29 10 -12 20 -12 21 3 8 10 -7 17 -9 17 -3 0 15 -21 20 -52 11 -16 -4 -28 -4
-28 2 0 8 15 13 33 10 11 -2 8 6 -9 23 -12 13 -20 14 -36 5 -17 -9 -18 -13 -7
-21 12 -8 11 -9 -1 -5 -8 2 -15 8 -15 13 0 15 -27 74 -34 75 -3 0 -18 3 -33 5
-18 3 -28 0 -28 -7 0 -7 -3 -9 -6 -6 -4 4 -1 13 6 22 14 17 10 25 -13 29 -8 1
-22 8 -31 15 -9 7 -16 10 -16 6 0 -4 -6 -3 -12 2 -7 6 -31 10 -53 10 -30 0
-43 -5 -53 -21 -9 -14 -12 -15 -8 -4 6 20 -9 34 -19 18 -3 -5 -10 -10 -16 -10
-5 0 -1 8 9 18 11 11 20 14 24 8 4 -6 10 -7 15 -3 9 9 -17 28 -29 21 -4 -3 -8
0 -8 7 0 9 -3 9 -14 0 -12 -10 -17 -8 -25 7 -6 11 -7 23 -3 27 4 5 1 5 -6 1
-11 -6 -10 -12 2 -32 14 -20 14 -23 1 -18 -8 4 -15 1 -15 -5 0 -6 8 -11 18
-12 9 0 12 -3 5 -5 -6 -3 -25 2 -41 10 -22 12 -32 12 -41 3 -9 -9 -14 -9 -21
2 -7 12 -12 12 -23 3 -12 -10 -16 -10 -20 1 -4 10 6 13 42 12 26 -1 53 -5 60
-10 10 -6 12 -4 6 5 -5 9 -4 11 3 6 7 -4 12 -2 12 4 0 7 -8 9 -22 4 -20 -6
-21 -5 -10 9 10 12 10 17 1 23 -7 4 -9 3 -6 -3 4 -6 0 -16 -7 -22 -17 -14 -31
1 -21 22 4 6 0 4 -8 -5 -14 -18 -33 -25 -23 -10 3 5 -1 9 -9 9 -11 0 -12 -4
-4 -14 16 -18 5 -16 -41 7 -22 11 -40 18 -40 14 0 -4 -8 0 -17 7 -16 13 -17
12 -5 -3 8 -9 11 -21 8 -26 -3 -5 1 -9 8 -9 9 0 12 7 9 16 -4 11 0 10 11 -4
10 -11 15 -14 11 -8 -4 9 -1 11 10 6 13 -4 14 -8 4 -14 -7 -4 -17 -5 -23 -2
-5 4 -7 -2 -3 -13 6 -17 6 -17 -5 -3 -7 9 -19 14 -27 11 -10 -3 -12 0 -8 11 8
22 -12 34 -51 31 -18 -1 -35 2 -37 7 -7 11 -35 0 -35 -13 0 -6 6 -6 14 1 8 7
17 8 20 3 3 -6 -4 -13 -17 -16 -22 -6 -22 -7 -3 -21 11 -8 15 -15 9 -15 -19 0
-44 37 -37 56 4 14 3 15 -4 5 -8 -11 -10 -11 -15 0 -3 8 -5 3 -4 -11 2 -20 -3
-25 -23 -25 -14 0 -32 -4 -40 -10 -12 -7 -13 -6 -3 7 7 8 10 18 6 21 -3 4 -1
7 5 7 7 0 12 -6 12 -12 0 -9 4 -8 10 2 6 10 10 11 10 3 0 -7 5 -13 11 -13 8 0
8 4 0 14 -17 21 -51 14 -66 -14 -8 -14 -14 -19 -15 -11 0 8 -3 11 -6 8 -4 -3
-15 -2 -25 3 -13 8 -20 6 -27 -6 -8 -15 -10 -15 -16 1 -3 10 -4 20 -1 23 3 3
5 0 5 -8 0 -8 4 -9 13 -4 15 11 38 11 55 1 6 -5 12 -4 12 0 0 5 -9 14 -21 21
-12 8 -18 9 -14 3 9 -15 -8 -14 -24 2 -8 7 -11 7 -8 1 4 -7 -3 -11 -18 -11
-14 0 -23 3 -21 6 3 4 -4 7 -14 8 -23 2 -35 -13 -19 -23 8 -4 9 -3 5 4 -4 7
-2 12 3 12 6 0 11 -7 11 -15 0 -8 5 -15 12 -15 6 0 9 -3 6 -6 -4 -3 -17 0 -30
7 -12 7 -27 13 -32 14 -15 0 -18 23 -4 28 7 2 5 3 -4 2 -10 -2 -18 1 -18 6 0
5 -8 1 -18 -8 -11 -10 -18 -20 -16 -23 1 -3 -6 -6 -16 -6 -10 0 -18 4 -17 9 1
5 -4 12 -12 15 -8 2 -11 0 -8 -5 3 -5 -3 -9 -13 -9 -10 0 -16 4 -13 9 2 4 -1
16 -9 25 -12 16 -11 16 7 2 20 -15 20 -14 1 8 -20 23 -32 30 -21 12 5 -9 -8
-14 -19 -7 -2 1 -14 -7 -27 -18 -16 -13 -19 -14 -11 -3 11 14 10 18 -7 27 -14
8 -21 8 -24 -2 -4 -7 -6 -8 -6 -1 -1 6 7 18 16 25 14 12 16 12 8 0 -5 -9 -4
-12 3 -7 5 3 13 0 15 -6 4 -9 6 -9 6 1 1 11 5 10 16 -5 13 -17 14 -17 15 -1 0
15 -11 22 -32 18 -5 0 -8 3 -8 8 0 5 -7 12 -16 15 -8 3 -13 2 -10 -3 3 -5 -1
-11 -9 -14 -10 -4 -12 -1 -9 11 3 9 -2 5 -11 -10 -16 -29 -28 -38 -19 -14 4 9
-2 13 -21 11 -21 -3 -24 -1 -15 10 10 12 8 13 -10 10 -13 -2 -25 -7 -28 -10
-3 -3 -14 2 -24 12 -10 9 -18 13 -18 8 0 -4 -8 -1 -17 6 -17 13 -17 13 -3 -5z
m-16 -92 c3 -8 2 -12 -4 -9 -6 3 -10 10 -10 16 0 14 7 11 14 -7z m26 6 c0 -5
-2 -10 -4 -10 -3 0 -8 5 -11 10 -3 6 -1 10 4 10 6 0 11 -4 11 -10z m400 -42
c0 -5 -5 -8 -11 -8 -5 0 -7 5 -4 10 3 6 1 10 -5 10 -6 0 -8 5 -4 11 6 11 23
-6 24 -23z m-442 -3 c0 -23 -2 -24 -13 -8 -13 18 -11 33 4 33 5 0 9 -11 9 -25z
m857 3 c3 -3 -5 -13 -17 -24 -18 -15 -20 -16 -9 -1 11 14 11 17 -2 17 -19 0
-39 -24 -29 -35 4 -5 1 -5 -6 -1 -11 6 -11 11 0 23 11 14 10 15 -12 9 l-25 -7
25 15 c23 13 64 16 75 4z m-380 -18 c3 -5 1 -10 -4 -10 -6 0 -11 5 -11 10 0 6
2 10 4 10 3 0 8 -4 11 -10z m245 -5 c0 -13 -37 -23 -51 -13 -12 8 -11 9 2 5 9
-3 22 -1 30 4 16 10 19 11 19 4z m-135 -15 c-3 -5 -12 -10 -18 -10 -7 0 -6 4
3 10 19 12 23 12 15 0z m359 2 c3 -5 -1 -9 -9 -9 -8 0 -12 4 -9 9 3 4 7 8 9 8
2 0 6 -4 9 -8z m196 4 c0 -3 -4 -8 -10 -11 -5 -3 -10 -1 -10 4 0 6 5 11 10 11
6 0 10 -2 10 -4z m-100 -26 c0 -5 -5 -10 -11 -10 -5 0 -7 5 -4 10 3 6 8 10 11
10 2 0 4 -4 4 -10z m238 -9 c1 -1 5 -1 10 -2 4 0 14 -7 23 -15 9 -8 18 -11 21
-8 3 3 9 0 13 -6 7 -12 -39 -10 -51 3 -4 4 -13 2 -21 -4 -9 -9 -13 -8 -13 0 0
6 5 11 11 11 5 0 7 5 4 10 -5 8 -11 7 -21 -1 -8 -6 -14 -8 -14 -3 0 5 -5 2
-10 -6 -7 -12 -9 -11 -8 6 2 16 8 20 28 18 14 -1 26 -2 28 -3z m-1493 -9 c-3
-3 0 -11 6 -19 9 -9 8 -13 0 -13 -6 0 -11 4 -11 9 0 5 -15 8 -32 6 -32 -4 -32
-4 -10 9 23 12 57 18 47 8z m1425 4 c0 -3 -4 -8 -10 -11 -5 -3 -10 -1 -10 4 0
6 5 11 10 11 6 0 10 -2 10 -4z m-1500 -28 c0 -4 -7 -8 -16 -8 -9 0 -12 -5 -8
-12 4 -7 3 -8 -4 -4 -7 4 -12 2 -12 -5 0 -7 -3 -10 -6 -7 -9 9 17 45 32 45 8
0 14 -4 14 -9z m-70 -30 c0 -5 -5 -8 -11 -8 -5 0 -7 5 -4 10 3 6 1 10 -5 10
-6 0 -8 5 -4 11 6 11 23 -6 24 -23z m120 18 c0 -3 -4 -8 -10 -11 -5 -3 -10 -1
-10 4 0 6 5 11 10 11 6 0 10 -2 10 -4z m1648 -29 c15 -10 16 -27 1 -27 -5 0
-7 5 -4 10 5 9 -15 15 -37 11 -5 0 -8 3 -8 9 0 11 28 9 48 -3z m-13 -37 c3 -5
1 -10 -4 -10 -6 0 -11 5 -11 10 0 6 2 10 4 10 3 0 8 -4 11 -10z m-1939 -17
c-2 -10 -11 -18 -22 -18 -10 0 -18 -5 -17 -12 2 -7 -4 -10 -13 -6 -17 6 -13
29 5 26 6 -2 11 2 11 8 0 5 4 8 9 4 5 -3 12 -1 16 5 9 15 14 12 11 -7z m1971
-5 c-3 -8 -6 -5 -6 6 -1 11 2 17 5 13 3 -3 4 -12 1 -19z m68 2 c3 -5 1 -10 -4
-10 -6 0 -11 5 -11 10 0 6 2 10 4 10 3 0 8 -4 11 -10z m-2185 -62 c0 -4 -8 -8
-17 -8 -15 0 -16 -2 -3 -10 13 -8 12 -10 -2 -10 -20 0 -21 2 -13 23 6 15 35
19 35 5z m2230 -7 c0 -6 -4 -12 -8 -15 -5 -3 -9 1 -9 9 0 8 4 15 9 15 4 0 8
-4 8 -9z m91 -35 c6 3 3 -8 -5 -25 -9 -17 -19 -31 -22 -31 -2 0 0 10 7 21 8
17 8 23 -2 30 -7 4 -17 5 -23 2 -5 -4 -6 -1 -1 7 6 10 1 12 -18 8 -15 -3 -24
-1 -21 3 3 5 12 9 20 9 9 0 12 5 8 13 -4 6 5 -1 19 -16 15 -15 32 -25 38 -21z
m39 -43 c0 -1 -8 -7 -18 -12 -13 -7 -19 -6 -19 2 0 7 9 13 19 13 10 0 18 -1
18 -3z m-2570 -43 c0 -12 -20 -24 -45 -27 -16 -3 -17 -1 -5 7 8 5 11 10 6 10
-5 0 -3 6 4 14 11 15 40 11 40 -4z m-20 -50 c0 -5 -2 -10 -4 -10 -3 0 -8 5
-11 10 -3 6 -1 10 4 10 6 0 11 -4 11 -10z m-57 -36 c-4 -12 -8 -13 -14 -3 -9
15 -2 32 11 24 5 -3 6 -13 3 -21z m37 22 c0 -3 -4 -8 -10 -11 -5 -3 -10 -1
-10 4 0 6 5 11 10 11 6 0 10 -2 10 -4z m2720 -56 c-5 -9 -7 -20 -5 -24 3 -3 2
-3 -2 0 -11 8 -10 28 2 36 6 5 6 8 -2 8 -7 0 -13 5 -13 11 0 8 4 8 15 -1 10
-9 12 -17 5 -30z m-2836 -75 c-10 -8 -23 -15 -28 -15 -6 0 -1 7 10 15 10 8 23
15 28 15 6 0 1 -7 -10 -15z m2901 -35 c3 -6 -1 -7 -9 -4 -18 7 -21 14 -7 14 6
0 13 -4 16 -10z m-2949 -15 c-1 -8 -5 -17 -8 -21 -5 -4 -4 16 1 34 3 9 9 -1 7
-13z m-146 -45 c0 -5 -2 -10 -4 -10 -3 0 -8 5 -11 10 -3 6 -1 10 4 10 6 0 11
-4 11 -10z m3187 -85 c0 -8 -4 -12 -9 -9 -5 3 -6 10 -3 15 9 13 12 11 12 -6z
m38 -15 c-3 -5 -12 -10 -18 -10 -7 0 -6 4 3 10 19 12 23 12 15 0z m-3301 -55
c-3 -7 -12 -16 -19 -19 -8 -3 -12 -13 -10 -24 2 -10 -2 -19 -10 -19 -17 0 -13
22 10 47 14 15 15 20 4 21 -10 0 -11 2 -1 6 6 2 9 10 5 16 -4 7 0 7 9 -1 9 -8
14 -20 12 -27z m3346 -25 c0 -5 -5 -10 -11 -10 -5 0 -7 5 -4 10 3 6 8 10 11
10 2 0 4 -4 4 -10z m43 -33 c3 -8 0 -14 -7 -14 -7 0 -13 6 -13 14 0 7 4 13 8
13 4 0 9 -6 12 -13z m100 -50 c-4 -7 -8 -18 -9 -25 -4 -26 -12 -23 -12 5 0 34
6 45 19 37 5 -3 6 -11 2 -17z m-39 -13 c3 -8 2 -12 -4 -9 -6 3 -10 10 -10 16
0 14 7 11 14 -7z m-3547 -53 c-1 -14 -5 -17 -13 -11 -6 6 -15 6 -20 2 -4 -4
-2 1 5 11 18 23 30 22 28 -2z m3607 -29 c3 -5 -1 -9 -9 -9 -8 0 -15 4 -15 9 0
4 4 8 9 8 6 0 12 -4 15 -8z m-3632 -56 c7 4 8 2 4 -5 -4 -6 -11 -9 -16 -6 -4
3 -10 -1 -13 -7 -2 -7 -4 0 -4 16 0 23 1 26 9 12 5 -9 14 -13 20 -10z m3790
-19 c-5 -18 -7 -19 -10 -4 -2 10 -8 14 -15 10 -7 -4 -6 0 2 10 17 22 31 13 23
-16z m78 -47 c0 -5 -2 -10 -4 -10 -3 0 -8 5 -11 10 -3 6 -1 10 4 10 6 0 11 -4
11 -10z m65 -40 c3 -6 -1 -7 -9 -4 -18 7 -21 14 -7 14 6 0 13 -4 16 -10z m109
-71 c-3 -6 2 -19 11 -29 12 -13 13 -18 3 -16 -20 3 -55 25 -40 26 6 0 12 5 12
10 0 7 -7 7 -22 0 -21 -10 -21 -10 2 9 24 19 46 19 34 0z m-4137 -54 c0 -8 -4
-12 -9 -9 -4 3 -8 9 -8 15 0 5 4 9 8 9 5 0 9 -7 9 -15z m4159 -64 c-4 -5 0
-12 6 -14 8 -3 6 -6 -4 -6 -18 -1 -24 10 -11 22 9 10 15 8 9 -2z m48 -31 c10
-13 9 -13 -6 -1 -10 7 -18 21 -17 30 0 13 1 14 6 1 3 -8 11 -22 17 -30z
m-4233 7 c-10 -9 -11 -8 -5 6 3 10 9 15 12 12 3 -3 0 -11 -7 -18z m4224 -147
c3 -5 1 -10 -4 -10 -6 0 -11 5 -11 10 0 6 2 10 4 10 3 0 8 -4 11 -10z m-4285
-46 c0 -2 -8 0 -19 5 -10 6 -22 7 -26 3 -5 -4 -5 -1 -1 6 5 9 12 9 27 2 10 -6
19 -13 19 -16z m4318 -35 c-19 -12 -25 -11 -25 5 0 8 8 11 20 8 14 -4 16 -7 5
-13z m-4341 -11 c-3 -8 -6 -5 -6 6 -1 11 2 17 5 13 3 -3 4 -12 1 -19z m17
-108 c-8 -7 -64 -6 -64 2 0 4 15 6 34 5 19 -1 32 -4 30 -7z m4329 -47 c-7 -2
-13 -9 -13 -14 0 -6 4 -8 9 -5 13 9 7 -22 -7 -36 -9 -9 -12 -9 -12 0 0 7 5 12
11 12 8 0 8 4 -1 15 -13 16 -6 35 13 34 9 0 9 -2 0 -6z m-4369 -79 c3 -8 11
-12 17 -8 8 4 9 3 5 -5 -6 -9 -11 -9 -22 0 -8 6 -14 8 -14 5 0 -4 -5 -4 -10
-1 -11 7 -4 25 10 25 4 0 11 -7 14 -16z m4336 6 c0 -5 -5 -10 -11 -10 -5 0 -7
5 -4 10 3 6 8 10 11 10 2 0 4 -4 4 -10z m-4344 -46 c-5 -13 -2 -15 14 -11 11
3 18 1 14 -4 -3 -5 -12 -9 -20 -9 -8 0 -14 -4 -14 -10 0 -5 5 -10 12 -10 6 0
9 -2 6 -5 -3 -3 -12 -3 -21 0 -13 5 -15 23 -7 45 1 3 2 8 1 13 0 4 4 7 10 7 6
0 8 -7 5 -16z m4344 -14 c0 -5 -5 -10 -11 -10 -5 0 -7 5 -4 10 3 6 8 10 11 10
2 0 4 -4 4 -10z m-4310 -100 c0 -5 -7 -6 -17 -3 -12 5 -14 3 -8 -7 5 -9 4 -11
-4 -6 -6 4 -9 12 -6 17 8 12 35 12 35 -1z m-27 -120 c9 -11 13 -20 7 -20 -5 0
-14 9 -20 20 -6 11 -9 20 -8 20 2 0 11 -9 21 -20z m4188 -23 c-10 -9 -11 -8
-5 6 3 10 9 15 12 12 3 -3 0 -11 -7 -18z m-4183 -41 c-7 -8 -17 -12 -22 -9 -4
3 -2 9 5 14 22 13 31 11 17 -5z m4129 -31 c-4 -8 -2 -17 3 -20 6 -4 10 1 10
10 0 9 5 13 10 10 8 -5 7 -11 -1 -21 -9 -10 -15 -11 -25 -3 -11 9 -9 39 3 39
3 0 3 -7 0 -15z m-39 -36 c-3 -8 -7 -3 -11 10 -4 17 -3 21 5 13 5 -5 8 -16 6
-23z m-4068 -24 c-7 -8 -17 -15 -23 -15 -6 0 -2 7 9 15 25 19 30 19 14 0z
m-37 -61 c-6 -3 -9 -16 -7 -30 4 -22 2 -23 -10 -12 -10 9 -11 15 -2 20 7 5 6
8 -4 8 -13 0 -13 1 0 10 8 5 20 9 25 9 6 0 5 -3 -2 -5z m3987 -126 c0 -5 -5
-8 -11 -8 -5 0 -7 5 -3 12 5 7 2 9 -8 5 -12 -4 -14 -1 -11 14 5 18 6 19 19 2
7 -10 14 -21 14 -25z m-3970 6 c0 -8 -19 -13 -24 -6 -3 5 1 9 9 9 8 0 15 -2
15 -3z m-70 -70 c0 -2 -9 0 -20 6 -11 6 -20 13 -20 16 0 2 9 0 20 -6 11 -6 20
-13 20 -16z m4013 -109 c-7 -21 -12 -19 -10 4 0 11 5 18 9 15 4 -3 5 -11 1
-19z m-4013 -5 c0 -5 -2 -10 -4 -10 -3 0 -8 5 -11 10 -3 6 -1 10 4 10 6 0 11
-4 11 -10z m4130 -20 c-24 -15 -36 -11 -14 4 10 8 21 12 24 10 2 -3 -2 -9 -10
-14z m114 -7 c4 -8 1 -11 -5 -8 -6 4 -16 -1 -23 -10 -12 -16 -13 -16 -10 6 3
28 1 26 19 26 8 0 17 -7 19 -14z m-54 -13 c0 -5 -2 -10 -4 -10 -3 0 -8 5 -11
10 -3 6 -1 10 4 10 6 0 11 -4 11 -10z m255 -30 c4 -6 -1 -7 -12 -4 -16 5 -16
4 1 -10 16 -13 17 -16 4 -16 -9 0 -18 6 -21 14 -9 23 15 37 28 16z m-210 -10
c3 -5 1 -10 -4 -10 -6 0 -11 5 -11 10 0 6 2 10 4 10 3 0 8 -4 11 -10z m135 6
c0 -2 -7 -7 -16 -10 -8 -3 -12 -2 -9 4 6 10 25 14 25 6z m113 -2 c7 -7 -2 -34
-12 -34 -4 0 -7 9 -8 20 -2 19 8 26 20 14z m76 -65 c-11 -22 -21 -26 -13 -5 3
8 0 17 -5 21 -6 3 -9 11 -5 16 4 6 11 6 20 -2 10 -8 11 -16 3 -30z m-4629 21
c-10 -6 -11 -10 -2 -10 6 0 12 -5 12 -11 0 -8 -5 -8 -15 1 -16 13 -11 30 8 30
7 0 6 -4 -3 -10z m4680 -26 c0 -2 -7 -4 -15 -4 -8 0 -15 4 -15 10 0 5 7 7 15
4 8 -4 15 -8 15 -10z m14 -32 c3 -5 -1 -9 -9 -9 -8 0 -12 4 -9 9 3 4 7 8 9 8
2 0 6 -4 9 -8z m166 -101 c0 -4 -6 -8 -13 -8 -8 0 -14 6 -14 13 0 7 6 10 14 7
7 -3 13 -8 13 -12z m87 -44 c7 -15 8 -29 2 -38 -8 -12 -9 -12 -7 1 1 8 -3 25
-10 38 -7 12 -9 22 -4 22 5 0 14 -11 19 -23z m-20 -39 c-3 -8 -6 -5 -6 6 -1
11 2 17 5 13 3 -3 4 -12 1 -19z m-4997 -18 c0 -5 -2 -10 -4 -10 -3 0 -8 5 -11
10 -3 6 -1 10 4 10 6 0 11 -4 11 -10z m5045 -48 c-3 -3 -11 0 -18 7 -9 10 -8
11 6 5 10 -3 15 -9 12 -12z m12 -27 c0 -8 -4 -12 -9 -9 -5 3 -6 10 -3 15 9 13
12 11 12 -6z m-5082 -33 c-3 -3 -11 0 -18 7 -9 10 -8 11 6 5 10 -3 15 -9 12
-12z m-52 -6 c4 -10 1 -13 -9 -9 -10 4 -12 0 -8 -11 3 -9 2 -16 -4 -16 -11 0
-11 18 1 38 10 16 14 15 20 -2z m5197 -31 c7 -8 10 -15 6 -15 -3 0 -8 0 -11 0
-3 0 -5 3 -4 6 0 4 -5 11 -13 15 -8 5 -9 9 -2 9 6 0 17 -7 24 -15z m30 -49 c0
-2 -8 -10 -17 -17 -16 -13 -17 -12 -4 4 13 16 21 21 21 13z m-5250 -46 c0 -5
-2 -10 -4 -10 -3 0 -8 5 -11 10 -3 6 -1 10 4 10 6 0 11 -4 11 -10z m5296 -29
c1 -6 0 -7 -2 -2 -3 6 -11 8 -19 5 -7 -3 -15 -1 -19 4 -3 5 5 8 16 7 12 -1 23
-7 24 -14z m-5336 -5 c0 -3 -4 -8 -10 -11 -5 -3 -10 -1 -10 4 0 6 5 11 10 11
6 0 10 -2 10 -4z m5355 -55 c3 -5 2 -12 -3 -15 -5 -3 -9 1 -9 9 0 17 3 19 12
6z m45 -45 c0 -3 -4 -8 -10 -11 -5 -3 -10 -1 -10 4 0 6 5 11 10 11 6 0 10 -2
10 -4z m3 -31 c-3 -9 -8 -14 -10 -11 -3 3 -2 9 2 15 9 16 15 13 8 -4z m28 -2
c-11 -4 -11 -7 0 -13 7 -5 14 -19 15 -32 2 -13 0 -18 -2 -11 -4 10 -8 10 -19
0 -7 -7 -10 -16 -7 -22 3 -5 1 -6 -3 -2 -11 10 -16 39 -5 32 4 -3 14 3 21 12
12 15 11 16 -8 11 -20 -5 -21 -4 -12 13 5 10 15 19 22 18 8 0 7 -2 -2 -6z
m-5494 -52 c-1 -12 -7 -17 -19 -13 -10 2 -18 8 -18 13 0 5 7 6 15 3 8 -4 15
-1 15 5 0 6 2 11 4 11 3 0 4 -8 3 -19z m5516 -56 c-2 -7 -10 -12 -17 -12 -7 0
-13 5 -13 12 0 6 8 11 18 11 9 0 15 -5 12 -11z m-5573 -36 c0 -5 5 -7 10 -4
17 10 11 -2 -7 -16 -10 -7 -15 -9 -11 -5 4 5 3 15 -3 23 -9 9 -8 13 0 13 6 0
11 -5 11 -11z m5560 1 c0 -5 -2 -10 -4 -10 -3 0 -8 5 -11 10 -3 6 -1 10 4 10
6 0 11 -4 11 -10z m0 -110 c0 -5 -5 -10 -11 -10 -5 0 -7 5 -4 10 3 6 8 10 11
10 2 0 4 -4 4 -10z m-5540 -100 c0 -5 -5 -10 -11 -10 -5 0 -7 5 -4 10 3 6 8
10 11 10 2 0 4 -4 4 -10z m-44 -55 c1 -8 -2 -13 -7 -9 -5 3 -9 0 -9 -5 0 -6
-4 -11 -9 -11 -11 0 -9 19 3 38 9 15 19 9 22 -13z m5602 3 c-3 -14 -18 -28
-30 -28 -4 0 0 9 9 20 20 23 24 25 21 8z m-24 -87 c-4 -3 -9 0 -11 7 -3 6 -10
9 -15 6 -7 -4 -8 -2 -4 5 6 9 11 9 22 0 8 -6 12 -15 8 -18z m-37 -16 c0 -8 -4
-12 -9 -9 -5 3 -6 10 -3 15 9 13 12 11 12 -6z m-5589 -27 c-2 -7 2 -12 9 -13
6 0 14 -3 18 -7 9 -9 -17 -5 -33 5 -7 5 -10 13 -7 18 9 13 15 11 13 -3z m-33
-148 c-3 -5 -13 -10 -21 -10 -8 0 -12 -4 -9 -10 3 -5 4 -10 1 -10 -17 0 -13
22 6 29 30 13 30 13 23 1z m5577 -32 c-8 -8 -9 -4 -5 13 4 13 8 18 11 10 2 -7
-1 -18 -6 -23z m-94 -123 c-3 -3 -9 2 -12 12 -6 14 -5 15 5 6 7 -7 10 -15 7
-18z m-5523 4 c-7 -11 -35 -12 -35 -1 0 4 9 8 20 9 11 1 18 -2 15 -8z m5575
-13 c0 -11 -19 -15 -25 -6 -3 5 1 10 9 10 9 0 16 -2 16 -4z m-5579 -99 c-10
-9 -11 -8 -5 6 3 10 9 15 12 12 3 -3 0 -11 -7 -18z m5469 19 c0 -2 -7 -7 -16
-10 -8 -3 -12 -2 -9 4 6 10 25 14 25 6z m-83 -91 c0 -8 -4 -12 -9 -9 -5 3 -6
10 -3 15 9 13 12 11 12 -6z m-5437 -46 c0 -4 -7 -6 -15 -3 -8 4 -15 10 -15 15
0 4 7 6 15 3 8 -4 15 -10 15 -15z m5440 11 c0 -5 -2 -10 -4 -10 -3 0 -8 5 -11
10 -3 6 -1 10 4 10 6 0 11 -4 11 -10z m-5446 -60 c10 -13 9 -13 -9 0 -11 8
-22 15 -24 17 -1 1 1 7 5 14 6 10 9 10 12 -1 3 -8 10 -22 16 -30z m5417 17
c-10 -9 -11 -8 -5 6 3 10 9 15 12 12 3 -3 0 -11 -7 -18z m-5361 8 c0 -2 -6 -8
-13 -14 -10 -8 -14 -7 -14 2 0 8 6 14 14 14 7 0 13 -1 13 -2z m-79 -142 c-11
-5 -11 -7 0 -15 12 -8 12 -10 0 -15 -11 -5 -11 -7 0 -15 12 -8 11 -9 -1 -6 -8
3 -14 14 -13 26 1 31 2 32 16 31 8 0 8 -2 -2 -6z m5460 -10 c13 -16 12 -17 -3
-4 -10 7 -18 15 -18 17 0 8 8 3 21 -13z m-33 -18 c-3 -3 -9 2 -12 12 -6 14 -5
15 5 6 7 -7 10 -15 7 -18z m30 -20 c-3 -3 -9 2 -12 12 -6 14 -5 15 5 6 7 -7
10 -15 7 -18z m-5427 -92 c13 -16 12 -17 -3 -4 -17 13 -22 21 -14 21 2 0 10
-8 17 -17z m5433 9 c2 -4 -5 -9 -17 -9 -17 -2 -19 0 -7 7 18 12 18 12 24 2z
m-5463 -29 c-11 -4 -11 -7 0 -14 7 -4 10 -11 6 -16 -9 -9 -28 17 -21 29 3 4
11 8 17 7 8 0 7 -3 -2 -6z m5424 -3 c3 -5 1 -10 -4 -10 -6 0 -11 5 -11 10 0 6
2 10 4 10 3 0 8 -4 11 -10z m-5400 -129 c3 -5 2 -12 -3 -15 -5 -3 -9 1 -9 9 0
17 3 19 12 6z m5405 -5 c0 -3 -4 -8 -10 -11 -5 -3 -10 -1 -10 4 0 6 5 11 10
11 6 0 10 -2 10 -4z m-5426 -60 c-7 -18 -34 -22 -34 -5 0 5 5 7 10 4 6 -3 13
1 16 10 4 9 8 14 10 12 3 -2 2 -12 -2 -21z m5436 14 c8 -5 11 -10 5 -10 -5 0
-17 5 -25 10 -8 5 -10 10 -5 10 6 0 17 -5 25 -10z m-12 -41 c-3 -8 -7 -3 -11
10 -4 17 -3 21 5 13 5 -5 8 -16 6 -23z m20 -106 c-5 -7 -6 -18 -2 -25 5 -10 4
-10 -6 -1 -11 10 -11 15 1 29 12 16 12 17 -2 12 -13 -5 -16 -2 -12 13 5 18 6
19 18 2 9 -12 10 -22 3 -30z m-5423 -33 c3 -5 1 -10 -4 -10 -6 0 -11 5 -11 10
0 6 2 10 4 10 3 0 8 -4 11 -10z m-15 -34 c0 -2 -7 -7 -16 -10 -8 -3 -12 -2 -9
4 6 10 25 14 25 6z m5411 -20 c5 3 9 0 9 -6 0 -15 -23 -7 -26 8 -1 7 0 8 3 2
2 -5 9 -8 14 -4z m-13 -41 c-3 -3 -9 2 -12 12 -6 14 -5 15 5 6 7 -7 10 -15 7
-18z m-21 -50 c0 -8 -4 -12 -9 -9 -5 3 -6 10 -3 15 9 13 12 11 12 -6z m-5368
-87 c-5 -10 -12 -18 -15 -18 -2 0 -1 8 4 18 5 9 7 24 5 32 -4 13 -3 13 6 1 6
-10 6 -21 0 -33z m5381 12 c0 -5 -5 -10 -11 -10 -5 0 -7 5 -4 10 3 6 8 10 11
10 2 0 4 -4 4 -10z m-5400 -100 c-14 -9 -7 -15 14 -11 5 1 4 -4 -2 -12 -7 -8
-9 -17 -6 -20 4 -3 -3 -5 -15 -4 -24 2 -29 17 -5 17 13 0 14 3 5 13 -11 14 -5
27 13 27 6 0 4 -5 -4 -10z m31 -97 c13 -16 12 -17 -3 -4 -17 13 -22 21 -14 21
2 0 10 -8 17 -17z m-30 -20 c-11 -5 -11 -7 0 -15 12 -8 12 -10 0 -15 -11 -5
-11 -7 0 -15 12 -8 11 -9 -1 -6 -8 3 -14 14 -13 26 1 31 2 32 16 31 8 0 8 -2
-2 -6z m5395 -14 c3 -5 1 -16 -4 -25 -6 -11 -11 -13 -16 -5 -4 6 -2 11 3 11 6
0 11 5 11 10 0 6 -6 10 -14 10 -8 0 -17 4 -20 9 -4 5 3 7 14 4 11 -3 23 -9 26
-14z m4 -69 c12 -23 -4 -65 -21 -55 -5 4 -7 11 -4 16 4 5 1 9 -4 9 -6 0 -11 5
-11 10 0 6 5 9 11 8 6 -2 14 3 17 11 3 9 0 11 -8 6 -9 -5 -11 -4 -6 3 10 16
14 15 26 -8z m-5370 -34 c0 -3 -4 -8 -10 -11 -5 -3 -10 -1 -10 4 0 6 5 11 10
11 6 0 10 -2 10 -4z m5370 -64 c0 -5 -7 -9 -15 -9 -8 0 -15 4 -15 9 0 4 7 8
15 8 8 0 15 -4 15 -8z m-5375 -62 c3 -5 1 -10 -4 -10 -6 0 -11 5 -11 10 0 6 2
10 4 10 3 0 8 -4 11 -10z m1 -73 c5 -9 4 -9 -7 1 -14 13 -30 16 -28 5 4 -22
-3 -32 -16 -26 -14 5 -14 7 0 23 8 9 12 20 8 25 -5 4 2 3 14 -4 12 -6 25 -17
29 -24z m-22 -41 c-3 -9 -10 -16 -15 -16 -5 0 -9 -5 -9 -10 0 -7 6 -7 19 0 14
7 22 7 26 0 4 -6 3 -10 -2 -9 -22 4 -34 -2 -27 -14 4 -6 -1 -5 -11 5 -17 15
-17 17 1 41 21 28 28 29 18 3z"/>
<path d="M1656 5691 c-4 -5 -2 -12 3 -15 5 -4 12 -2 15 3 4 5 2 12 -3 15 -5 4
-12 2 -15 -3z"/>
<path d="M5605 320 c-3 -5 -1 -10 4 -10 6 0 11 5 11 10 0 6 -2 10 -4 10 -3 0
-8 -4 -11 -10z"/>
<path d="M2850 6201 c0 -6 4 -13 10 -16 6 -3 7 1 4 9 -7 18 -14 21 -14 7z"/>
<path d="M2910 6160 c0 -5 5 -10 11 -10 5 0 7 5 4 10 -3 6 -8 10 -11 10 -2 0
-4 -4 -4 -10z"/>
<path d="M2936 6134 c-23 -23 -20 -30 4 -9 11 10 20 20 20 22 0 7 -9 2 -24
-13z"/>
<path d="M2957 6124 c-11 -11 3 -24 18 -18 8 4 12 10 9 15 -6 11 -18 12 -27 3z"/>
<path d="M3116 6118 c3 -5 10 -6 15 -3 13 9 11 12 -6 12 -8 0 -12 -4 -9 -9z"/>
<path d="M3219 6113 c-12 -16 -12 -17 2 -5 9 7 25 10 35 6 16 -5 16 -4 4 5
-20 15 -25 14 -41 -6z"/>
<path d="M3816 6059 c3 -5 9 -7 14 -4 4 3 11 0 13 -5 3 -6 4 -5 3 1 -1 7 -10
13 -19 15 -9 1 -15 -2 -11 -7z"/>
<path d="M2419 6037 c6 -8 8 -17 4 -21 -4 -4 0 -4 10 -1 14 6 14 9 2 21 -17
18 -31 18 -16 1z"/>
<path d="M3780 6040 c0 -5 7 -7 15 -4 8 4 15 8 15 10 0 2 -7 4 -15 4 -8 0 -15
-4 -15 -10z"/>
<path d="M2395 6020 c-3 -5 -1 -10 4 -10 6 0 11 5 11 10 0 6 -2 10 -4 10 -3 0
-8 -4 -11 -10z"/>
<path d="M3920 6020 c-9 -6 -10 -10 -3 -10 6 0 15 5 18 10 8 12 4 12 -15 0z"/>
<path d="M2230 6000 c0 -5 5 -10 10 -10 6 0 10 5 10 10 0 6 -4 10 -10 10 -5 0
-10 -4 -10 -10z"/>
<path d="M3965 5980 c-3 -5 -1 -10 4 -10 6 0 11 5 11 10 0 6 -2 10 -4 10 -3 0
-8 -4 -11 -10z"/>
<path d="M2130 5958 c0 -10 -5 -18 -11 -18 -5 0 -7 6 -3 13 4 7 3 9 -2 4 -5
-5 -9 -12 -9 -15 0 -4 -4 -13 -9 -21 -6 -9 -1 -8 16 3 14 9 28 13 31 9 10 -10
8 10 -3 27 -8 13 -10 12 -10 -2z"/>
<path d="M2077 5943 c-4 -3 -7 -13 -7 -22 1 -13 3 -13 11 2 11 19 8 33 -4 20z"/>
<path d="M4030 5940 c0 -5 5 -10 11 -10 5 0 7 5 4 10 -3 6 -8 10 -11 10 -2 0
-4 -4 -4 -10z"/>
<path d="M4060 5921 c0 -7 -4 -10 -8 -7 -5 3 -9 -2 -9 -10 0 -13 2 -13 16 0 8
9 12 19 8 22 -4 4 -7 2 -7 -5z"/>
<path d="M1853 5855 c0 -8 4 -12 9 -9 5 3 6 10 3 15 -9 13 -12 11 -12 -6z"/>
<path d="M1826 5814 c-3 -8 -11 -12 -17 -8 -8 4 -9 3 -5 -4 10 -17 -6 -15 -34
5 -24 16 -24 16 -11 0 7 -9 11 -18 7 -18 -3 -1 -9 -2 -13 -3 -18 -3 -33 -18
-33 -33 0 -14 4 -13 23 5 13 12 26 20 29 16 4 -3 17 0 30 7 12 7 27 12 31 11
5 -1 6 2 2 8 -3 5 -1 10 4 10 6 0 11 5 11 10 0 16 -17 12 -24 -6z"/>
<path d="M1720 5800 c-9 -6 -10 -10 -3 -10 6 0 15 5 18 10 8 12 4 12 -15 0z"/>
<path d="M1670 5740 c0 -5 5 -10 11 -10 5 0 7 5 4 10 -3 6 -8 10 -11 10 -2 0
-4 -4 -4 -10z"/>
<path d="M4275 5720 c-3 -5 -1 -10 4 -10 6 0 11 5 11 10 0 6 -2 10 -4 10 -3 0
-8 -4 -11 -10z"/>
<path d="M1615 5709 c-4 -6 -5 -12 -2 -15 2 -3 7 2 10 11 7 17 1 20 -8 4z"/>
<path d="M4300 5705 c0 -7 30 -13 34 -7 3 4 -4 9 -15 9 -10 1 -19 0 -19 -2z"/>
<path d="M4350 5660 c0 -5 5 -10 11 -10 5 0 7 5 4 10 -3 6 -8 10 -11 10 -2 0
-4 -4 -4 -10z"/>
<path d="M1513 5570 c-1 -11 2 -20 5 -20 4 0 8 9 9 20 1 11 -2 20 -5 20 -4 0
-8 -9 -9 -20z"/>
<path d="M4419 5583 c-1 -5 -1 -17 0 -28 0 -11 -2 -14 -5 -7 -3 6 -11 12 -17
12 -6 0 0 -11 13 -25 13 -14 26 -23 29 -20 9 10 9 35 0 29 -8 -4 -14 17 -10
39 0 4 -1 7 -4 7 -3 0 -6 -3 -6 -7z"/>
<path d="M1483 5538 c-3 -7 -1 -8 5 -4 16 10 15 -6 0 -24 -7 -8 -2 -6 12 5 14
11 26 20 28 21 1 1 -6 4 -18 7 -11 3 -23 0 -27 -5z"/>
<path d="M1436 5475 c4 -8 11 -15 16 -15 6 0 5 6 -2 15 -7 8 -14 15 -16 15 -2
0 -1 -7 2 -15z"/>
<path d="M1250 5380 c0 -5 5 -10 11 -10 5 0 7 5 4 10 -3 6 -8 10 -11 10 -2 0
-4 -4 -4 -10z"/>
<path d="M1300 5361 c0 -6 5 -13 10 -16 6 -3 10 1 10 9 0 9 -4 16 -10 16 -5 0
-10 -4 -10 -9z"/>
<path d="M4554 5362 c4 -3 14 -7 22 -8 9 -1 13 0 10 4 -4 3 -14 7 -22 8 -9 1
-13 0 -10 -4z"/>
<path d="M4597 5268 c12 -13 20 -15 34 -7 11 5 19 15 18 22 0 9 -2 9 -6 0 -2
-7 -9 -13 -14 -13 -6 0 -8 4 -5 8 2 4 -6 8 -19 8 -23 0 -23 -1 -8 -18z"/>
<path d="M1195 5240 c3 -5 8 -10 11 -10 2 0 4 5 4 10 0 6 -5 10 -11 10 -5 0
-7 -4 -4 -10z"/>
<path d="M1150 5138 c0 -3 6 -11 14 -17 10 -9 17 -7 27 6 12 16 12 17 -2 6
-12 -10 -18 -10 -27 -1 -7 7 -12 9 -12 6z"/>
<path d="M1114 5100 c0 -13 4 -16 10 -10 7 7 7 13 0 20 -6 6 -10 3 -10 -10z"/>
<path d="M4891 5007 c-13 -21 -12 -21 5 -5 10 10 16 20 13 22 -3 3 -11 -5 -18
-17z"/>
<path d="M4948 5013 c7 -3 16 -2 19 1 4 3 -2 6 -13 5 -11 0 -14 -3 -6 -6z"/>
<path d="M5010 4999 c0 -5 5 -7 10 -4 6 3 10 8 10 11 0 2 -4 4 -10 4 -5 0 -10
-5 -10 -11z"/>
<path d="M1067 4969 c-15 -9 -16 -13 -5 -27 11 -14 10 -15 -5 -9 -12 5 -16 3
-11 -5 5 -8 1 -9 -12 -4 -14 5 -16 4 -8 -4 18 -19 62 7 60 36 0 13 -1 24 -1
24 0 0 -8 -5 -18 -11z"/>
<path d="M5074 4928 c-4 -5 -4 -10 -3 -11 2 -2 12 -9 21 -16 16 -12 18 -11 16
11 -2 24 -23 34 -34 16z"/>
<path d="M1020 4896 c0 -2 9 -6 20 -9 11 -3 18 -1 14 4 -5 9 -34 13 -34 5z"/>
<path d="M5230 4799 c0 -5 5 -7 10 -4 6 3 10 8 10 11 0 2 -4 4 -10 4 -5 0 -10
-5 -10 -11z"/>
<path d="M970 4779 c0 -5 5 -7 10 -4 6 3 10 8 10 11 0 2 -4 4 -10 4 -5 0 -10
-5 -10 -11z"/>
<path d="M990 4761 c0 -6 4 -12 8 -15 5 -3 9 1 9 9 0 8 -4 15 -9 15 -4 0 -8
-4 -8 -9z"/>
<path d="M970 4740 c0 -5 5 -10 11 -10 5 0 7 5 4 10 -3 6 -8 10 -11 10 -2 0
-4 -4 -4 -10z"/>
<path d="M967 4663 c4 -11 3 -14 -5 -9 -7 4 -12 3 -12 -3 0 -5 9 -9 19 -8 16
1 18 5 10 19 -12 23 -20 24 -12 1z"/>
<path d="M5291 4531 c-8 -5 -16 -17 -17 -26 -2 -12 1 -13 10 -6 7 6 15 9 17 6
3 -2 5 5 5 15 0 11 0 20 -1 20 0 0 -6 -4 -14 -9z"/>
<path d="M883 4436 c-10 -11 -9 -15 2 -20 9 -3 12 -12 8 -23 -4 -11 -2 -15 3
-10 10 9 14 67 5 67 -3 -1 -11 -7 -18 -14z"/>
<path d="M5310 4425 c0 -5 5 -17 10 -25 5 -8 10 -10 10 -5 0 6 -5 17 -10 25
-5 8 -10 11 -10 5z"/>
<path d="M870 4360 c0 -5 5 -10 10 -10 6 0 10 5 10 10 0 6 -4 10 -10 10 -5 0
-10 -4 -10 -10z"/>
<path d="M5287 4316 c-4 -10 -1 -13 9 -9 7 3 14 9 14 14 0 14 -17 10 -23 -5z"/>
<path d="M5315 4202 c3 -3 -1 -12 -7 -21 -8 -10 -4 -9 10 3 26 23 26 23 7 23
-8 0 -13 -3 -10 -5z"/>
<path d="M5271 4126 c-9 -11 -9 -16 0 -22 7 -4 9 -3 5 4 -3 5 0 12 6 15 7 2
10 7 7 11 -3 4 -12 0 -18 -8z"/>
<path d="M5290 4099 c0 -5 5 -7 10 -4 6 3 10 8 10 11 0 2 -4 4 -10 4 -5 0 -10
-5 -10 -11z"/>
<path d="M5209 4018 c-3 -19 -5 -24 -12 -35 -5 -8 -4 -13 2 -13 6 0 11 5 11
11 0 5 5 7 10 4 6 -4 10 -3 9 2 -3 20 2 34 11 28 6 -3 10 -2 10 4 0 11 -39 11
-41 -1z"/>
<path d="M882 3993 c10 -13 10 -17 1 -20 -7 -3 -13 -9 -13 -15 0 -6 6 -6 15 2
8 7 15 9 15 4 0 -4 5 -3 12 4 14 14 -1 34 -27 38 -14 2 -14 0 -3 -13z"/>
<path d="M5215 3960 c-3 -5 -1 -10 4 -10 6 0 11 5 11 10 0 6 -2 10 -4 10 -3 0
-8 -4 -11 -10z"/>
<path d="M5146 3905 c5 -12 4 -16 -4 -11 -6 3 -16 -3 -22 -14 -6 -11 -15 -18
-20 -15 -14 9 -19 -9 -6 -26 9 -14 13 -14 24 -3 8 9 9 14 2 14 -6 0 -8 5 -5
10 5 8 11 7 21 -1 10 -8 14 -8 14 0 0 6 -4 11 -10 11 -5 0 -10 5 -10 11 0 5 4
8 8 5 4 -2 14 -1 20 3 10 6 9 11 -3 21 -13 11 -14 10 -9 -5z"/>
<path d="M866 3752 c-3 -6 -1 -14 5 -17 15 -10 25 3 12 16 -7 7 -13 7 -17 1z"/>
<path d="M5016 3727 c3 -10 9 -15 12 -12 3 3 0 11 -7 18 -10 9 -11 8 -5 -6z"/>
<path d="M4990 3701 c0 -5 8 -15 18 -22 15 -12 16 -12 5 2 -7 9 -10 19 -6 22
3 4 1 7 -5 7 -7 0 -12 -4 -12 -9z"/>
<path d="M4970 3659 c0 -5 5 -7 10 -4 6 3 10 8 10 11 0 2 -4 4 -10 4 -5 0 -10
-5 -10 -11z"/>
<path d="M4935 3591 c-3 -5 -2 -12 3 -15 5 -3 9 1 9 9 0 17 -3 19 -12 6z"/>
<path d="M794 3493 c11 -11 -15 -32 -32 -26 -14 4 -15 3 -2 -5 9 -7 19 -7 26
-2 6 6 13 8 16 5 3 -3 11 1 18 10 7 8 11 15 9 16 -31 6 -40 7 -35 2z"/>
<path d="M4906 3433 c-6 -14 -5 -15 5 -6 7 7 10 15 7 18 -3 3 -9 -2 -12 -12z"/>
<path d="M4986 3439 c2 -4 13 -7 24 -6 23 2 17 10 -10 12 -10 1 -17 -2 -14 -6z"/>
<path d="M5115 3409 c-4 -6 -5 -12 -2 -15 2 -3 7 2 10 11 7 17 1 20 -8 4z"/>
<path d="M5433 3323 c4 -6 2 -13 -5 -15 -8 -3 -6 -6 4 -10 17 -7 19 15 3 29
-4 4 -5 3 -2 -4z"/>
<path d="M710 3279 c0 -5 5 -7 10 -4 6 3 10 8 10 11 0 2 -4 4 -10 4 -5 0 -10
-5 -10 -11z"/>
<path d="M5530 3255 c0 -2 9 -19 20 -37 22 -37 45 -45 47 -16 2 20 1 20 -13 2
-14 -18 -15 -18 -9 2 4 16 0 23 -16 27 -11 3 -18 10 -14 16 3 6 1 11 -4 11 -6
0 -11 -2 -11 -5z"/>
<path d="M713 3235 c0 -8 4 -12 9 -9 11 7 5 -38 -7 -52 -5 -7 -13 -10 -17 -8
-8 5 -4 -23 5 -32 13 -14 7 -26 -7 -14 -11 9 -19 9 -33 0 -16 -9 -15 -10 6 -4
15 4 21 2 17 -4 -3 -6 2 -9 11 -8 12 2 18 12 18 27 0 13 5 31 10 39 5 8 10 20
11 25 0 6 2 16 2 23 1 8 7 10 15 6 7 -4 9 -3 4 2 -5 5 -12 9 -15 9 -4 0 -12 3
-18 7 -6 4 -11 1 -11 -7z"/>
<path d="M5644 3172 c3 -5 0 -13 -6 -15 -9 -4 -10 -6 -1 -6 17 -1 25 16 12 25
-7 4 -9 3 -5 -4z"/>
<path d="M5672 3151 c-11 -6 -10 -10 4 -15 9 -3 19 -4 22 -1 3 3 0 5 -7 5 -7
0 -9 5 -6 10 7 12 4 12 -13 1z"/>
<path d="M5675 3110 c3 -5 8 -10 11 -10 2 0 4 5 4 10 0 6 -5 10 -11 10 -5 0
-7 -4 -4 -10z"/>
<path d="M678 3083 c7 -3 16 -2 19 1 4 3 -2 6 -13 5 -11 0 -14 -3 -6 -6z"/>
<path d="M5770 3040 c0 -5 5 -10 11 -10 5 0 7 5 4 10 -3 6 -8 10 -11 10 -2 0
-4 -4 -4 -10z"/>
<path d="M536 2858 c3 -5 10 -6 15 -3 13 9 11 12 -6 12 -8 0 -12 -4 -9 -9z"/>
<path d="M563 2851 c-9 -15 -9 -20 0 -24 7 -3 13 5 13 19 2 29 2 29 -13 5z"/>
<path d="M5900 2796 c0 -2 7 -9 15 -16 9 -7 15 -8 15 -2 0 5 -7 12 -15 16 -8
3 -15 4 -15 2z"/>
<path d="M6015 2721 c-3 -5 -2 -12 3 -15 5 -3 9 1 9 9 0 17 -3 19 -12 6z"/>
<path d="M435 2609 c-4 -6 -5 -12 -2 -15 2 -3 7 2 10 11 7 17 1 20 -8 4z"/>
<path d="M6073 2345 c0 -8 4 -12 9 -9 5 3 6 10 3 15 -9 13 -12 11 -12 -6z"/>
<path d="M6037 2316 c-4 -10 -1 -13 9 -9 7 3 14 9 14 14 0 14 -17 10 -23 -5z"/>
<path d="M370 2299 c0 -5 5 -7 10 -4 6 3 10 8 10 11 0 2 -4 4 -10 4 -5 0 -10
-5 -10 -11z"/>
<path d="M6045 2290 c-16 -7 -17 -9 -3 -9 9 -1 20 4 23 9 7 11 7 11 -20 0z"/>
<path d="M6026 2261 c-3 -5 1 -14 10 -21 12 -10 17 -11 27 -1 9 10 8 11 -6 5
-13 -5 -16 -2 -11 10 6 17 -11 23 -20 7z"/>
<path d="M380 2134 c0 -8 5 -12 10 -9 6 4 8 11 5 16 -9 14 -15 11 -15 -7z"/>
<path d="M6039 2088 c-5 -18 -6 -38 -1 -34 7 8 12 36 6 36 -2 0 -4 -1 -5 -2z"/>
<path d="M6010 2061 c0 -7 -6 -11 -13 -8 -9 3 -13 -2 -12 -16 1 -12 0 -26 -4
-32 -11 -19 -10 -38 1 -27 6 6 18 8 27 5 14 -4 14 -3 1 6 -8 6 -11 11 -5 11 5
0 4 5 -3 12 -9 9 -8 16 5 30 9 10 13 21 10 25 -4 3 -7 1 -7 -6z"/>
<path d="M5990 1959 c0 -5 5 -7 10 -4 6 3 10 8 10 11 0 2 -4 4 -10 4 -5 0 -10
-5 -10 -11z"/>
<path d="M275 1940 c3 -5 8 -10 11 -10 2 0 4 5 4 10 0 6 -5 10 -11 10 -5 0 -7
-4 -4 -10z"/>
<path d="M5953 1898 c-11 -14 -9 -45 2 -56 4 -4 5 1 3 10 -1 9 6 24 17 32 19
15 19 16 1 9 -13 -4 -17 -3 -12 5 10 16 1 15 -11 0z"/>
<path d="M5970 1859 c0 -5 5 -7 10 -4 6 3 10 8 10 11 0 2 -4 4 -10 4 -5 0 -10
-5 -10 -11z"/>
<path d="M5953 1815 c0 -8 4 -12 9 -9 5 3 6 10 3 15 -9 13 -12 11 -12 -6z"/>
<path d="M236 1698 c3 -5 10 -6 15 -3 13 9 11 12 -6 12 -8 0 -12 -4 -9 -9z"/>
<path d="M5804 1702 c4 -7 3 -12 -2 -12 -5 0 -9 -6 -9 -13 0 -7 8 -13 17 -13
18 0 16 31 -3 43 -6 3 -7 1 -3 -5z"/>
<path d="M250 1642 c0 -10 -4 -22 -10 -28 -5 -5 -5 -15 -1 -23 6 -9 11 -10 15
-2 4 6 2 11 -5 11 -7 0 -3 10 9 23 12 13 19 27 15 30 -12 13 -23 7 -23 -11z"/>
<path d="M5716 1593 c-13 -14 -5 -23 19 -21 14 1 25 3 25 5 0 7 -38 21 -44 16z"/>
<path d="M175 1500 c-3 -5 -1 -10 4 -10 6 0 11 5 11 10 0 6 -2 10 -4 10 -3 0
-8 -4 -11 -10z"/>
<path d="M189 1448 c-8 -7 -12 -12 -10 -11 2 2 9 -1 15 -7 8 -6 12 -3 12 11 0
10 -1 19 -1 19 -1 0 -8 -6 -16 -12z"/>
<path d="M5735 1380 c-3 -5 -1 -10 4 -10 6 0 11 5 11 10 0 6 -2 10 -4 10 -3 0
-8 -4 -11 -10z"/>
<path d="M189 1283 c-1 -5 -1 -12 0 -16 1 -4 -3 -17 -9 -27 -6 -11 -8 -20 -6
-20 6 0 36 55 36 65 0 8 -20 6 -21 -2z"/>
<path d="M155 1261 c-3 -5 -2 -12 3 -15 5 -3 9 1 9 9 0 17 -3 19 -12 6z"/>
<path d="M183 1111 c-10 -15 -9 -20 2 -25 8 -3 17 0 21 6 4 7 3 8 -4 4 -16 -9
-15 7 0 22 7 7 8 12 2 12 -5 0 -15 -9 -21 -19z"/>
<path d="M5707 1059 c7 -7 15 -10 18 -7 3 3 -2 9 -12 12 -14 6 -15 5 -6 -5z"/>
<path d="M165 940 c10 -11 20 -20 23 -20 3 0 -3 9 -13 20 -10 11 -20 20 -23
20 -3 0 3 -9 13 -20z"/>
<path d="M180 899 c0 -5 5 -7 10 -4 6 3 10 8 10 11 0 2 -4 4 -10 4 -5 0 -10
-5 -10 -11z"/>
<path d="M170 736 c0 -2 7 -7 16 -10 8 -3 12 -2 9 4 -6 10 -25 14 -25 6z"/>
<path d="M174 694 c-1 -13 2 -24 8 -24 5 0 6 5 2 12 -5 8 -2 9 9 5 9 -3 19 -1
23 6 4 7 3 9 -1 4 -5 -4 -15 -1 -24 7 -14 13 -16 12 -17 -10z"/>
<path d="M5656 678 c3 -5 10 -6 15 -3 13 9 11 12 -6 12 -8 0 -12 -4 -9 -9z"/>
<path d="M190 579 c0 -5 -4 -8 -8 -5 -4 2 -9 -5 -9 -16 -1 -11 -1 -19 0 -17 1
2 11 14 21 27 11 12 14 22 8 22 -7 0 -12 -5 -12 -11z"/>
<path d="M5638 573 c7 -3 16 -2 19 1 4 3 -2 6 -13 5 -11 0 -14 -3 -6 -6z"/>
<path d="M5650 460 c0 -5 5 -10 11 -10 5 0 7 5 4 10 -3 6 -8 10 -11 10 -2 0
-4 -4 -4 -10z"/>
<path d="M5648 403 c6 -2 9 -10 6 -15 -4 -7 -2 -8 5 -4 13 9 5 26 -12 25 -9 0
-8 -2 1 -6z"/>
<path d="M146 378 c3 -5 10 -6 15 -3 13 9 11 12 -6 12 -8 0 -12 -4 -9 -9z"/>
<path d="M150 321 c0 -6 4 -13 10 -16 6 -3 7 1 4 9 -7 18 -14 21 -14 7z"/>
<path d="M189 328 c0 -2 -2 -16 -4 -32 -4 -26 -3 -27 10 -10 9 12 10 21 3 25
-6 4 -5 9 3 12 10 4 10 6 2 6 -7 1 -13 0 -14 -1z"/>
<path d="M160 210 c6 -11 13 -20 16 -20 2 0 0 9 -6 20 -6 11 -13 20 -16 20 -2
0 0 -9 6 -20z"/>
</g>
</svg>
